<svg id="svg" version="1.1" xmlns="http://www.w3.org/2000/svg" xmlns:xlink="http://www.w3.org/1999/xlink" width="400" height="533.3333333333334" viewBox="0, 0, 400,533.3333333333334"><g id="svgg"><path id="path0" d="M294.305 257.325 C 293.483 257.552,292.710 258.052,292.589 258.436 C 292.467 258.819,291.819 259.324,291.148 259.558 C 290.477 259.792,289.588 260.416,289.172 260.945 C 288.755 261.474,287.692 262.197,286.807 262.550 C 285.923 262.904,285.200 263.384,285.200 263.617 C 285.200 263.850,284.582 264.299,283.827 264.615 C 283.071 264.930,282.214 265.531,281.920 265.950 C 281.627 266.369,280.684 267.005,279.826 267.364 C 278.967 267.722,278.015 268.372,277.709 268.808 C 277.404 269.244,276.818 269.600,276.406 269.600 C 275.995 269.600,275.322 270.028,274.911 270.550 C 274.499 271.073,273.451 271.864,272.582 272.308 C 271.712 272.752,270.657 273.494,270.238 273.957 C 269.819 274.421,269.191 274.800,268.842 274.800 C 268.494 274.800,267.757 275.251,267.204 275.802 C 265.155 277.848,262.190 280.000,261.422 280.000 C 260.987 280.000,260.173 280.450,259.615 280.999 C 256.653 283.914,255.555 284.719,254.194 284.975 C 253.237 285.154,252.643 285.516,252.518 285.994 C 252.411 286.401,251.794 286.954,251.146 287.222 C 250.498 287.491,249.750 288.004,249.484 288.362 C 249.218 288.721,248.521 289.319,247.936 289.692 C 247.351 290.065,246.380 290.827,245.778 291.385 C 245.176 291.943,244.317 292.400,243.870 292.400 C 243.423 292.400,242.472 292.985,241.758 293.700 C 238.996 296.464,237.364 297.585,236.091 297.594 C 235.521 297.598,235.018 297.962,234.740 298.573 C 234.496 299.108,233.786 299.757,233.161 300.016 C 232.537 300.275,231.919 300.826,231.787 301.242 C 231.655 301.658,231.143 302.100,230.649 302.223 C 230.155 302.347,229.258 302.971,228.655 303.610 C 228.039 304.263,226.932 304.889,226.128 305.040 C 225.258 305.203,224.625 305.581,224.515 306.005 C 224.415 306.388,223.853 306.948,223.266 307.250 C 222.680 307.553,221.864 308.215,221.454 308.722 C 221.044 309.229,220.009 309.923,219.154 310.265 C 218.299 310.607,217.600 311.043,217.600 311.233 C 217.600 311.424,217.015 311.875,216.300 312.235 C 215.585 312.596,214.550 313.333,214.000 313.872 C 212.047 315.788,209.005 318.000,208.321 318.000 C 207.940 318.000,207.428 318.374,207.183 318.832 C 206.938 319.289,206.212 319.847,205.569 320.071 C 204.926 320.295,204.400 320.630,204.400 320.817 C 204.400 321.320,199.142 325.193,198.100 325.458 C 197.605 325.584,197.200 325.946,197.200 326.264 C 197.200 326.581,196.562 327.107,195.783 327.433 C 195.003 327.759,194.261 328.296,194.134 328.627 C 194.007 328.959,193.416 329.481,192.822 329.789 C 192.227 330.096,191.150 330.900,190.428 331.574 C 189.706 332.248,188.863 332.800,188.555 332.800 C 188.247 332.800,187.615 333.237,187.151 333.771 C 186.686 334.305,185.787 334.957,185.153 335.219 C 184.519 335.482,184.000 335.939,184.000 336.234 C 184.000 336.530,183.674 336.946,183.275 337.160 C 182.877 337.373,181.665 338.279,180.583 339.174 C 179.500 340.068,178.393 340.800,178.121 340.800 C 177.850 340.800,177.437 341.158,177.203 341.595 C 176.968 342.033,176.356 342.496,175.841 342.625 C 175.327 342.754,174.517 343.387,174.041 344.030 C 173.565 344.674,172.976 345.200,172.731 345.200 C 172.486 345.200,171.727 345.736,171.043 346.392 C 168.006 349.304,167.086 350.037,165.786 350.580 C 165.023 350.899,164.400 351.351,164.400 351.586 C 164.400 351.821,163.772 352.312,163.004 352.679 C 162.236 353.045,161.504 353.672,161.377 354.072 C 161.250 354.472,160.971 354.800,160.757 354.800 C 160.543 354.800,159.687 355.475,158.855 356.300 C 157.101 358.038,154.078 360.528,153.439 360.759 C 153.198 360.847,152.570 361.342,152.045 361.859 C 151.520 362.377,150.766 362.800,150.368 362.800 C 149.971 362.800,149.326 363.340,148.936 364.000 C 148.546 364.660,148.054 365.200,147.842 365.200 C 147.630 365.200,146.880 365.785,146.175 366.500 C 144.813 367.882,143.044 369.402,139.800 371.977 C 138.700 372.851,137.421 373.933,136.958 374.383 C 136.495 374.832,135.916 375.200,135.671 375.200 C 135.427 375.200,134.616 375.785,133.869 376.500 C 131.405 378.860,127.033 382.744,125.000 384.380 C 123.900 385.265,122.498 386.442,121.884 386.995 C 121.270 387.548,120.517 388.000,120.211 388.000 C 119.905 388.000,119.278 388.529,118.817 389.176 C 118.356 389.823,117.653 390.456,117.254 390.583 C 116.855 390.710,116.289 391.260,115.996 391.807 C 115.704 392.353,115.235 392.800,114.955 392.800 C 114.675 392.800,114.193 393.160,113.885 393.600 C 113.372 394.333,111.130 396.364,107.000 399.838 C 103.669 402.640,102.760 403.430,101.696 404.454 C 101.093 405.034,100.204 405.628,99.720 405.775 C 99.237 405.921,98.730 406.392,98.594 406.820 C 98.457 407.249,98.186 407.600,97.990 407.600 C 97.715 407.600,92.647 412.362,89.000 416.047 C 88.780 416.269,87.008 418.014,85.061 419.925 C 83.115 421.836,80.775 424.191,79.861 425.159 C 78.948 426.126,77.958 427.116,77.661 427.359 C 76.627 428.206,65.600 439.392,65.599 439.595 C 65.598 439.708,65.059 440.160,64.400 440.600 C 63.741 441.040,63.202 441.537,63.201 441.705 C 63.201 441.873,62.030 443.169,60.600 444.585 C 59.170 446.001,58.000 447.328,58.000 447.533 C 58.000 447.739,57.642 448.000,57.205 448.115 C 56.767 448.229,56.225 448.807,56.000 449.400 C 55.775 449.993,55.247 450.567,54.828 450.677 C 54.409 450.786,53.853 451.390,53.592 452.019 C 53.332 452.647,52.701 453.435,52.190 453.770 C 51.679 454.105,51.148 454.734,51.010 455.169 C 50.872 455.603,50.441 456.060,50.052 456.184 C 49.663 456.307,49.066 456.991,48.725 457.704 C 48.051 459.115,46.637 460.888,44.300 463.251 C 43.475 464.086,42.800 464.943,42.800 465.157 C 42.800 465.371,42.455 465.656,42.033 465.789 C 41.612 465.923,41.087 466.548,40.867 467.179 C 40.648 467.809,40.111 468.438,39.674 468.577 C 39.237 468.715,38.759 469.310,38.611 469.897 C 38.464 470.485,37.707 471.694,36.929 472.583 C 36.151 473.472,35.038 474.794,34.457 475.519 C 33.876 476.245,32.815 477.487,32.100 478.281 C 31.385 479.074,30.800 479.981,30.800 480.298 C 30.800 480.614,30.170 481.609,29.400 482.508 C 28.630 483.408,28.000 484.375,28.000 484.658 C 28.000 484.941,27.628 485.371,27.174 485.614 C 26.719 485.857,25.996 486.809,25.567 487.728 C 24.704 489.580,23.295 491.737,22.076 493.076 C 21.637 493.557,21.060 494.637,20.793 495.476 C 20.526 496.314,19.878 497.412,19.354 497.916 C 18.829 498.420,18.400 499.158,18.400 499.556 C 18.400 499.954,17.866 501.017,17.213 501.919 C 16.560 502.820,15.900 504.060,15.745 504.675 C 15.591 505.291,14.955 506.497,14.332 507.357 C 13.710 508.217,13.200 509.262,13.200 509.680 C 13.200 510.604,12.169 512.676,11.616 512.864 C 11.396 512.939,11.030 513.990,10.803 515.200 C 10.576 516.410,10.015 517.912,9.555 518.538 C 9.087 519.176,8.497 520.962,8.211 522.608 C 7.931 524.221,7.319 526.161,6.851 526.918 C 6.225 527.930,6.000 528.944,6.000 530.747 L 6.000 533.200 136.600 533.200 C 262.072 533.200,267.200 533.172,267.200 532.480 C 267.200 531.433,269.190 530.851,274.974 530.211 C 278.758 529.791,280.285 529.451,281.148 528.837 C 281.926 528.283,283.400 527.895,285.738 527.629 C 288.167 527.353,289.520 526.988,290.331 526.388 C 291.103 525.817,292.521 525.408,294.640 525.145 C 296.861 524.869,298.053 524.514,298.655 523.949 C 299.150 523.483,300.743 522.889,302.434 522.539 C 304.042 522.207,305.799 521.587,306.339 521.162 C 306.879 520.738,308.019 520.279,308.872 520.142 C 309.725 520.006,311.073 519.378,311.867 518.747 C 312.779 518.022,313.783 517.600,314.596 517.600 C 315.473 517.600,316.273 517.226,317.113 516.423 C 317.790 515.776,318.968 515.130,319.732 514.986 C 320.495 514.843,321.497 514.293,321.957 513.763 C 322.418 513.233,323.021 512.799,323.297 512.798 C 324.650 512.792,326.779 511.898,326.984 511.249 C 327.111 510.850,327.925 510.289,328.794 510.002 C 329.662 509.716,330.770 509.058,331.256 508.541 C 331.742 508.023,332.433 507.600,332.792 507.600 C 333.150 507.600,334.123 506.978,334.954 506.217 C 335.784 505.456,336.815 504.722,337.245 504.586 C 337.674 504.449,338.462 503.902,338.995 503.369 C 339.528 502.836,340.230 502.400,340.555 502.400 C 340.880 502.400,341.530 501.860,342.000 501.200 C 342.470 500.540,343.040 500.000,343.267 500.000 C 343.494 500.000,344.170 499.505,344.770 498.900 C 347.224 496.425,349.216 494.811,350.086 494.593 C 350.593 494.466,351.312 493.830,351.685 493.181 C 352.058 492.531,352.611 492.000,352.914 492.000 C 353.217 492.000,353.704 491.553,353.996 491.007 C 354.289 490.460,354.861 489.908,355.268 489.778 C 355.676 489.649,356.275 489.029,356.600 488.400 C 356.925 487.771,357.524 487.151,357.932 487.022 C 358.339 486.892,358.910 486.343,359.200 485.800 C 359.490 485.257,360.059 484.708,360.464 484.580 C 360.869 484.451,361.200 484.102,361.200 483.805 C 361.200 483.507,361.875 482.553,362.700 481.684 C 364.415 479.878,366.413 477.417,367.232 476.100 C 367.540 475.605,367.997 475.200,368.248 475.200 C 368.498 475.200,368.930 474.653,369.207 473.984 C 369.484 473.315,370.010 472.550,370.375 472.284 C 370.741 472.018,371.278 471.215,371.569 470.500 C 371.859 469.785,372.591 468.705,373.194 468.100 C 373.798 467.495,374.407 466.517,374.547 465.927 C 374.687 465.336,375.161 464.739,375.601 464.600 C 376.040 464.460,376.400 464.079,376.400 463.753 C 376.400 462.877,377.616 460.672,378.409 460.113 C 378.788 459.845,379.301 458.820,379.549 457.835 C 379.797 456.851,380.323 455.810,380.717 455.523 C 381.112 455.235,381.662 454.225,381.940 453.277 C 382.218 452.329,382.801 451.199,383.235 450.765 C 383.670 450.330,384.135 449.396,384.269 448.688 C 384.577 447.062,385.106 445.995,386.054 445.084 C 386.464 444.691,386.800 443.848,386.800 443.210 C 386.800 441.764,387.462 439.933,388.185 439.380 C 388.487 439.149,388.998 437.685,389.320 436.127 C 389.643 434.569,390.287 432.778,390.753 432.147 C 391.295 431.413,391.727 429.977,391.955 428.157 C 392.287 425.502,392.904 423.675,393.629 423.195 C 393.800 423.083,394.143 421.103,394.392 418.795 C 394.648 416.429,395.173 413.903,395.597 413.000 C 396.581 410.904,396.718 409.925,397.213 401.448 C 397.443 397.515,397.792 393.465,397.989 392.448 C 398.187 391.432,398.458 389.925,398.592 389.100 C 398.744 388.166,399.056 387.600,399.418 387.600 C 399.886 387.600,400.000 386.859,400.000 383.800 C 400.000 380.711,399.889 380.000,399.408 380.000 C 399.082 380.000,398.730 379.595,398.626 379.100 C 397.814 375.236,397.556 373.289,397.195 368.297 C 396.715 361.644,396.557 360.726,395.602 359.051 C 395.211 358.363,394.663 356.270,394.386 354.400 C 394.087 352.380,393.586 350.618,393.152 350.059 C 392.750 349.542,392.314 348.462,392.184 347.659 C 391.657 344.426,391.496 343.937,390.600 342.873 C 390.087 342.263,389.540 341.052,389.384 340.182 C 389.228 339.312,388.786 338.240,388.401 337.800 C 387.370 336.623,386.800 335.377,386.800 334.301 C 386.800 333.767,386.276 332.848,385.605 332.205 C 384.948 331.575,384.300 330.474,384.166 329.758 C 384.031 329.041,383.664 328.357,383.350 328.236 C 383.036 328.116,382.429 327.202,382.002 326.206 C 381.575 325.210,380.880 324.023,380.458 323.570 C 380.035 323.116,379.584 322.220,379.456 321.580 C 379.328 320.939,378.778 320.028,378.234 319.555 C 377.690 319.082,376.980 318.043,376.656 317.247 C 376.332 316.451,375.692 315.487,375.233 315.104 C 374.775 314.721,374.400 314.050,374.400 313.613 C 374.400 313.176,373.982 312.545,373.471 312.210 C 372.960 311.875,372.138 310.791,371.643 309.801 C 371.149 308.810,370.567 308.000,370.352 308.000 C 370.136 308.000,369.707 307.396,369.399 306.659 C 369.090 305.921,368.380 305.017,367.819 304.649 C 367.259 304.282,366.800 303.712,366.800 303.382 C 366.800 303.053,366.353 302.579,365.808 302.331 C 365.262 302.082,364.706 301.535,364.573 301.115 C 364.440 300.695,363.926 300.167,363.431 299.942 C 362.937 299.716,362.229 299.018,361.858 298.390 C 361.487 297.762,360.827 297.136,360.392 296.997 C 359.956 296.859,359.600 296.480,359.600 296.154 C 359.600 295.829,359.060 295.256,358.399 294.881 C 357.738 294.507,357.093 293.875,356.965 293.477 C 356.836 293.079,356.294 292.588,355.759 292.384 C 355.223 292.181,354.613 291.561,354.403 291.007 C 354.192 290.453,353.755 290.000,353.430 290.000 C 353.106 290.000,352.360 289.370,351.773 288.600 C 351.186 287.830,350.461 287.200,350.162 287.200 C 349.863 287.200,349.324 286.750,348.963 286.200 C 348.603 285.650,348.086 285.200,347.815 285.200 C 347.544 285.200,346.690 284.615,345.916 283.900 C 343.715 281.865,340.352 279.200,339.986 279.200 C 339.803 279.200,339.546 278.859,339.414 278.443 C 339.282 278.027,338.652 277.470,338.016 277.206 C 337.379 276.943,336.556 276.394,336.187 275.986 C 335.819 275.579,335.021 275.136,334.415 275.003 C 333.808 274.870,332.803 274.230,332.181 273.581 C 331.559 272.931,330.805 272.400,330.505 272.400 C 329.809 272.400,327.611 271.268,326.871 270.528 C 326.559 270.216,325.811 269.862,325.208 269.742 C 324.606 269.621,323.609 269.089,322.992 268.559 C 322.375 268.030,321.141 267.400,320.249 267.159 C 319.357 266.919,318.351 266.412,318.013 266.033 C 317.676 265.654,316.572 265.116,315.561 264.837 C 314.549 264.558,313.213 263.893,312.591 263.359 C 311.969 262.824,310.735 262.271,309.848 262.129 C 308.961 261.987,307.859 261.495,307.399 261.035 C 306.927 260.563,305.527 259.985,304.181 259.706 C 302.813 259.422,301.534 258.889,301.175 258.454 C 300.829 258.035,299.754 257.571,298.775 257.419 C 297.799 257.266,296.730 257.090,296.400 257.026 C 296.070 256.963,295.127 257.097,294.305 257.325 M137.702 327.986 C 136.989 328.157,136.155 328.506,135.849 328.759 C 135.229 329.274,129.792 330.400,127.927 330.400 C 127.265 330.400,126.246 330.737,125.662 331.150 C 124.487 331.979,121.168 332.793,118.880 332.813 C 118.066 332.819,116.500 333.268,115.400 333.809 C 114.244 334.378,112.689 334.794,111.716 334.796 C 108.962 334.802,103.867 335.677,102.892 336.312 C 101.592 337.158,97.441 337.970,94.333 337.986 C 92.305 337.997,91.188 338.240,89.675 339.000 C 88.297 339.692,87.024 340.001,85.542 340.003 C 82.506 340.007,78.494 340.720,77.374 341.454 C 76.671 341.914,74.286 342.217,68.310 342.604 C 63.019 342.947,59.575 343.356,58.403 343.781 C 55.571 344.808,47.001 345.281,33.891 345.135 L 21.800 345.000 19.600 343.951 C 17.982 343.180,16.512 342.845,14.042 342.685 C 11.098 342.494,10.568 342.341,9.731 341.439 C 8.706 340.333,7.173 339.771,6.201 340.144 C 5.524 340.404,5.317 457.391,5.991 459.000 C 6.295 459.726,6.370 459.681,6.797 458.516 C 7.055 457.810,7.592 457.129,7.990 457.003 C 8.388 456.877,8.919 456.278,9.170 455.674 C 9.420 455.069,10.249 453.872,11.013 453.014 C 11.776 452.156,12.400 451.269,12.400 451.041 C 12.400 450.814,12.748 450.262,13.173 449.814 C 14.204 448.727,16.760 445.961,18.000 444.591 C 18.550 443.983,19.360 442.905,19.800 442.196 C 21.411 439.598,23.022 437.651,23.900 437.239 C 24.395 437.007,24.800 436.613,24.800 436.363 C 24.800 435.674,26.618 433.516,30.700 429.363 C 32.735 427.292,34.400 425.490,34.400 425.359 C 34.400 425.227,35.534 423.833,36.920 422.260 C 38.306 420.687,39.750 418.905,40.129 418.300 C 40.508 417.695,41.045 417.200,41.323 417.200 C 41.600 417.200,42.140 416.671,42.522 416.024 C 42.904 415.378,43.545 414.744,43.948 414.617 C 44.350 414.489,44.875 413.954,45.115 413.427 C 45.355 412.900,45.913 412.355,46.355 412.214 C 46.797 412.074,47.269 411.612,47.404 411.188 C 47.539 410.764,48.178 410.104,48.824 409.722 C 49.471 409.340,50.000 408.788,50.000 408.495 C 50.000 408.202,50.539 407.656,51.197 407.281 C 51.856 406.907,52.396 406.485,52.397 406.345 C 52.402 405.903,58.740 399.600,59.180 399.600 C 59.411 399.600,59.600 399.440,59.600 399.244 C 59.600 398.794,63.903 394.400,64.344 394.400 C 64.524 394.400,64.878 393.947,65.130 393.394 C 65.382 392.841,66.041 392.182,66.594 391.930 C 67.147 391.678,67.600 391.222,67.600 390.917 C 67.600 390.612,68.140 390.056,68.801 389.681 C 69.462 389.307,70.099 388.701,70.217 388.336 C 70.335 387.970,70.829 387.410,71.316 387.091 C 71.802 386.771,73.785 384.980,75.722 383.111 C 77.659 381.241,79.723 379.462,80.309 379.156 C 80.896 378.850,82.936 377.025,84.844 375.100 C 86.752 373.175,88.472 371.600,88.667 371.600 C 88.862 371.600,89.511 371.105,90.108 370.500 C 92.365 368.215,93.427 367.284,94.273 366.849 C 94.753 366.603,95.257 366.050,95.393 365.621 C 95.530 365.192,95.994 364.729,96.425 364.592 C 96.856 364.455,97.468 363.841,97.786 363.228 C 98.103 362.615,98.898 361.891,99.552 361.620 C 100.207 361.349,100.836 360.883,100.951 360.584 C 101.065 360.286,101.753 359.739,102.479 359.368 C 103.206 358.998,104.806 357.639,106.035 356.347 C 107.264 355.056,108.529 354.000,108.846 354.000 C 109.163 354.000,109.903 353.505,110.492 352.900 C 111.081 352.295,111.886 351.494,112.281 351.120 C 112.677 350.746,113.243 350.206,113.540 349.920 C 113.836 349.634,114.556 348.942,115.140 348.383 C 115.723 347.823,116.833 346.980,117.607 346.508 C 118.381 346.036,119.447 345.189,119.977 344.625 C 120.506 344.061,121.074 343.600,121.239 343.600 C 121.404 343.600,122.080 343.105,122.742 342.500 C 123.404 341.895,124.507 340.950,125.192 340.400 C 126.406 339.426,128.485 337.620,130.705 335.609 C 131.307 335.063,132.391 334.315,133.114 333.944 C 133.837 333.574,134.795 332.806,135.243 332.236 C 135.691 331.666,136.362 331.200,136.734 331.200 C 137.106 331.200,137.588 330.801,137.805 330.313 C 138.022 329.825,138.650 329.322,139.200 329.195 C 140.281 328.945,140.581 327.855,139.600 327.742 C 139.270 327.704,138.416 327.814,137.702 327.986 " stroke="none" fill="#3d9444" fill-rule="evenodd"></path><path id="path1" d="M0.000 266.600 L 0.000 533.200 2.200 533.200 L 4.400 533.200 4.421 531.500 C 4.453 528.883,5.398 524.168,6.106 523.087 C 6.456 522.554,6.859 521.416,7.001 520.558 C 7.338 518.534,7.962 516.859,8.870 515.538 C 9.271 514.954,9.600 514.144,9.600 513.738 C 9.600 513.332,10.132 511.920,10.782 510.600 C 11.433 509.280,12.340 507.390,12.799 506.400 C 13.258 505.410,14.233 503.520,14.966 502.200 C 15.700 500.880,16.762 498.855,17.328 497.700 C 17.893 496.545,18.526 495.600,18.734 495.600 C 18.943 495.600,19.414 494.847,19.783 493.927 C 20.151 493.006,20.845 491.769,21.326 491.177 C 22.174 490.133,23.165 488.580,24.400 486.362 C 24.730 485.769,25.391 484.770,25.869 484.142 C 28.934 480.113,30.000 478.563,30.000 478.133 C 30.000 477.865,30.322 477.410,30.716 477.123 C 31.110 476.835,31.873 475.970,32.411 475.200 C 33.478 473.672,34.314 472.636,36.300 470.380 C 37.015 469.568,37.600 468.743,37.600 468.546 C 37.600 468.350,38.050 467.852,38.600 467.439 C 39.150 467.026,39.600 466.522,39.600 466.318 C 39.600 465.985,41.280 463.878,44.000 460.802 C 44.550 460.180,45.540 459.010,46.200 458.202 C 46.860 457.394,47.985 456.150,48.700 455.438 C 49.415 454.726,50.000 453.943,50.000 453.699 C 50.000 453.454,50.540 452.870,51.200 452.400 C 51.860 451.930,52.400 451.328,52.400 451.062 C 52.400 450.796,52.895 450.120,53.500 449.560 C 54.105 449.000,55.942 447.024,57.583 445.171 C 63.024 439.023,93.088 409.270,97.769 405.400 C 98.567 404.740,99.801 403.701,100.510 403.091 C 101.220 402.481,102.381 401.491,103.091 400.891 C 103.801 400.291,104.881 399.333,105.491 398.763 C 106.101 398.193,108.940 395.692,111.800 393.206 C 114.660 390.719,117.322 388.351,117.716 387.943 C 118.109 387.534,118.598 387.200,118.802 387.200 C 119.006 387.200,119.802 386.615,120.571 385.900 C 121.339 385.185,122.627 384.060,123.432 383.400 C 124.237 382.740,125.462 381.660,126.154 381.000 C 126.845 380.340,128.093 379.289,128.926 378.664 C 129.760 378.039,131.159 376.824,132.037 375.964 C 132.914 375.104,133.778 374.400,133.957 374.400 C 134.135 374.400,134.851 373.905,135.546 373.300 C 136.242 372.695,137.460 371.660,138.254 371.000 C 139.047 370.340,140.089 369.440,140.568 369.000 C 141.047 368.560,142.601 367.265,144.020 366.123 C 145.439 364.980,147.050 363.607,147.600 363.072 C 148.150 362.536,149.019 361.882,149.530 361.619 C 150.042 361.355,150.786 360.838,151.183 360.470 C 151.581 360.101,152.602 359.227,153.453 358.527 C 157.228 355.421,159.472 353.504,160.404 352.588 C 160.957 352.044,161.563 351.600,161.752 351.600 C 162.069 351.600,163.155 350.766,166.200 348.181 C 166.860 347.621,168.300 346.443,169.400 345.564 C 170.500 344.685,171.845 343.591,172.389 343.133 C 172.934 342.676,173.825 342.009,174.370 341.652 C 174.915 341.295,175.756 340.642,176.238 340.201 C 176.720 339.761,177.966 338.770,179.006 338.000 C 181.145 336.417,184.165 333.993,185.486 332.800 C 185.973 332.360,186.544 332.000,186.755 332.000 C 186.966 332.000,187.649 331.489,188.273 330.865 C 188.897 330.241,189.606 329.656,189.848 329.565 C 190.091 329.474,190.899 328.917,191.644 328.327 C 193.308 327.010,196.412 324.728,199.437 322.600 C 200.688 321.720,202.266 320.505,202.945 319.900 C 203.623 319.295,204.398 318.800,204.666 318.800 C 204.935 318.800,205.390 318.477,205.677 318.083 C 205.965 317.688,206.771 317.013,207.470 316.583 C 208.168 316.152,209.821 314.956,211.142 313.925 C 212.463 312.894,214.080 311.772,214.736 311.433 C 215.391 311.094,215.989 310.660,216.064 310.468 C 216.139 310.276,216.920 309.637,217.800 309.048 C 221.096 306.841,222.230 306.013,223.316 305.020 C 223.930 304.459,224.626 304.000,224.861 304.000 C 225.282 304.000,225.833 303.590,229.724 300.385 C 230.783 299.513,231.901 298.800,232.210 298.800 C 232.519 298.800,232.967 298.435,233.206 297.989 C 233.445 297.543,234.351 296.893,235.220 296.545 C 236.089 296.198,236.800 295.750,236.800 295.552 C 236.800 295.237,238.597 293.933,242.348 291.525 C 242.927 291.153,243.594 290.680,243.831 290.473 C 244.069 290.266,244.969 289.648,245.831 289.100 C 246.694 288.552,247.743 287.720,248.162 287.252 C 248.581 286.783,249.159 286.400,249.446 286.400 C 249.734 286.400,250.332 286.010,250.776 285.533 C 251.221 285.056,252.193 284.291,252.937 283.833 C 256.108 281.880,258.800 279.951,258.800 279.631 C 258.800 279.442,259.244 279.175,259.786 279.039 C 260.328 278.903,261.202 278.362,261.727 277.837 C 262.252 277.311,263.294 276.566,264.041 276.181 C 264.788 275.796,265.635 275.148,265.923 274.740 C 266.210 274.333,266.688 274.000,266.985 274.000 C 267.282 274.000,268.278 273.370,269.200 272.600 C 270.122 271.830,270.994 271.200,271.138 271.200 C 271.282 271.199,271.940 270.732,272.600 270.162 C 273.260 269.591,274.340 268.847,275.000 268.508 C 275.660 268.169,276.344 267.646,276.520 267.346 C 276.696 267.046,277.090 266.800,277.396 266.800 C 277.701 266.800,278.748 266.125,279.723 265.300 C 280.697 264.475,282.097 263.440,282.833 263.000 C 285.959 261.134,286.641 260.687,287.400 260.011 C 288.091 259.396,290.178 257.961,292.360 256.601 C 292.712 256.382,293.603 255.774,294.340 255.250 L 295.680 254.298 297.340 255.126 C 298.253 255.581,299.794 256.131,300.764 256.348 C 301.733 256.566,302.993 257.084,303.564 257.499 C 304.134 257.915,305.500 258.495,306.600 258.788 C 307.700 259.082,308.889 259.569,309.243 259.871 C 309.596 260.173,310.946 260.791,312.243 261.245 C 313.539 261.698,314.879 262.319,315.220 262.624 C 315.561 262.929,316.632 263.458,317.600 263.800 C 318.568 264.142,319.639 264.671,319.980 264.977 C 320.321 265.283,321.410 265.846,322.400 266.228 C 323.390 266.611,324.470 267.153,324.800 267.433 C 325.130 267.714,326.244 268.304,327.275 268.747 C 328.306 269.189,329.521 269.921,329.975 270.375 C 330.429 270.829,331.143 271.200,331.562 271.200 C 331.981 271.200,333.078 271.830,334.000 272.600 C 334.922 273.370,335.929 274.000,336.238 274.000 C 336.547 274.000,337.146 274.346,337.570 274.770 C 337.993 275.193,338.702 275.734,339.146 275.971 C 339.837 276.341,342.920 278.873,347.853 283.121 C 348.542 283.714,349.712 284.703,350.453 285.318 C 352.975 287.411,357.232 291.391,361.521 295.664 C 369.209 303.325,369.889 304.090,372.653 308.191 C 373.243 309.066,373.922 309.993,374.163 310.251 C 374.403 310.509,375.320 311.928,376.200 313.405 C 377.080 314.882,378.271 316.655,378.846 317.345 C 379.421 318.035,380.014 318.990,380.163 319.467 C 380.311 319.944,380.831 320.838,381.316 321.455 C 382.312 322.717,383.494 324.796,384.992 327.922 C 385.551 329.088,386.322 330.380,386.704 330.792 C 387.087 331.205,387.722 332.455,388.116 333.571 C 388.510 334.687,388.999 335.600,389.201 335.600 C 389.403 335.600,389.825 336.460,390.137 337.512 C 390.449 338.563,391.151 340.082,391.697 340.886 C 392.243 341.691,392.812 343.117,392.963 344.056 C 393.113 344.995,393.583 346.325,394.007 347.011 C 394.431 347.698,394.971 349.236,395.207 350.430 C 395.443 351.623,396.061 353.770,396.580 355.200 C 397.100 356.630,397.734 359.510,397.989 361.600 C 398.561 366.277,398.705 366.800,399.427 366.800 C 399.924 366.800,400.000 342.321,400.000 183.400 L 400.000 0.000 200.000 0.000 L 0.000 0.000 0.000 266.600 M218.600 2.388 C 226.881 2.665,229.693 2.905,232.400 3.565 C 234.270 4.021,236.832 4.396,238.094 4.397 C 240.717 4.400,243.400 4.962,246.000 6.051 C 247.000 6.470,249.547 6.958,251.731 7.150 C 254.792 7.419,255.926 7.691,256.854 8.377 C 257.509 8.861,258.710 9.345,259.523 9.452 C 261.964 9.774,264.562 10.490,265.200 11.018 C 265.530 11.291,266.880 11.745,268.200 12.026 C 269.520 12.307,271.135 12.912,271.790 13.369 C 272.944 14.175,275.517 15.267,279.949 16.833 C 281.132 17.250,282.392 17.926,282.749 18.334 C 283.107 18.742,284.331 19.384,285.469 19.760 C 286.607 20.136,287.777 20.733,288.069 21.087 C 288.361 21.441,289.341 22.059,290.247 22.460 C 291.153 22.862,292.120 23.463,292.396 23.795 C 292.672 24.128,293.132 24.400,293.418 24.400 C 293.705 24.400,294.764 25.030,295.773 25.800 C 296.782 26.570,297.718 27.200,297.855 27.200 C 297.991 27.200,298.755 27.754,299.551 28.431 C 300.968 29.634,304.816 32.605,307.024 34.200 C 307.633 34.640,308.800 35.630,309.616 36.400 C 310.433 37.170,312.563 39.150,314.350 40.800 C 316.138 42.450,317.600 44.015,317.600 44.277 C 317.600 44.540,317.915 44.990,318.300 45.277 C 318.685 45.565,319.715 46.700,320.588 47.800 C 321.462 48.900,322.664 50.250,323.259 50.800 C 323.854 51.350,324.616 52.478,324.953 53.306 C 325.289 54.134,325.849 54.921,326.197 55.054 C 326.545 55.188,327.118 55.860,327.469 56.548 C 327.821 57.237,328.978 58.897,330.040 60.238 C 331.102 61.579,333.023 64.729,334.310 67.238 C 335.596 69.747,336.841 72.160,337.077 72.600 C 338.286 74.860,340.400 79.532,340.400 79.944 C 340.400 80.203,340.849 81.274,341.398 82.324 C 341.947 83.373,342.588 85.268,342.821 86.533 C 343.055 87.798,343.576 89.411,343.979 90.117 C 344.382 90.823,344.927 92.390,345.191 93.600 C 345.455 94.810,346.015 96.563,346.436 97.496 C 346.856 98.428,347.200 99.666,347.200 100.246 C 347.200 101.733,348.381 108.838,348.789 109.800 C 349.531 111.554,349.676 112.437,350.229 118.600 C 351.366 131.261,351.647 136.139,351.472 140.136 C 351.307 143.917,351.115 145.901,349.994 155.400 C 349.761 157.380,349.474 159.810,349.357 160.800 C 349.241 161.790,348.870 163.204,348.534 163.941 C 348.198 164.679,347.700 166.792,347.427 168.637 C 347.140 170.581,346.654 172.299,346.271 172.722 C 345.907 173.123,345.413 174.070,345.172 174.826 C 344.931 175.582,344.596 176.560,344.427 177.000 C 343.773 178.702,343.098 180.680,342.515 182.600 C 342.180 183.700,341.590 184.960,341.203 185.400 C 340.815 185.840,340.269 186.920,339.989 187.800 C 339.708 188.680,339.078 189.940,338.589 190.600 C 338.099 191.260,337.471 192.520,337.192 193.400 C 336.912 194.280,336.260 195.509,335.742 196.131 C 335.224 196.753,334.800 197.508,334.800 197.810 C 334.800 198.112,334.346 198.849,333.790 199.448 C 333.235 200.047,332.670 201.002,332.534 201.569 C 332.398 202.136,331.683 203.164,330.944 203.854 C 330.205 204.544,329.600 205.388,329.600 205.731 C 329.600 206.074,329.285 206.590,328.900 206.877 C 328.515 207.165,327.946 207.892,327.636 208.493 C 327.326 209.095,326.780 209.905,326.422 210.293 C 326.065 210.682,325.467 211.450,325.094 212.000 C 323.520 214.321,315.008 223.147,311.013 226.600 C 309.485 227.920,307.807 229.413,307.282 229.918 C 306.758 230.422,305.667 231.253,304.858 231.763 C 304.050 232.274,303.135 232.996,302.826 233.369 C 302.517 233.741,301.709 234.307,301.032 234.626 C 299.829 235.193,298.651 235.970,295.400 238.340 C 294.520 238.981,293.395 239.629,292.900 239.780 C 292.405 239.931,292.000 240.197,292.000 240.372 C 292.000 240.547,290.926 241.173,289.613 241.762 C 288.301 242.351,287.122 243.003,286.993 243.211 C 286.865 243.419,285.798 243.869,284.622 244.211 C 283.447 244.552,282.089 245.176,281.604 245.597 C 281.119 246.017,279.839 246.655,278.761 247.013 C 277.682 247.371,276.800 247.796,276.800 247.958 C 276.800 248.312,274.183 249.600,273.464 249.600 C 273.184 249.600,272.348 250.048,271.606 250.595 C 270.865 251.143,269.615 251.705,268.829 251.845 C 268.043 251.985,266.848 252.511,266.172 253.015 C 265.497 253.518,264.147 254.142,263.172 254.401 C 262.198 254.660,261.035 255.209,260.589 255.622 C 260.142 256.035,258.972 256.650,257.989 256.989 C 257.005 257.328,255.840 257.784,255.400 258.002 C 254.067 258.664,249.919 260.000,249.199 260.000 C 248.828 260.000,248.208 260.349,247.822 260.775 C 247.436 261.202,246.260 261.735,245.209 261.961 C 244.158 262.186,242.439 262.827,241.389 263.385 C 240.340 263.943,239.120 264.400,238.679 264.400 C 238.238 264.400,236.922 264.852,235.754 265.404 C 234.587 265.957,232.500 266.692,231.116 267.039 C 229.732 267.385,227.960 268.104,227.178 268.635 C 226.397 269.166,225.424 269.600,225.017 269.600 C 224.610 269.600,223.328 270.049,222.168 270.598 C 221.007 271.147,219.100 271.787,217.929 272.021 C 216.758 272.255,214.888 272.890,213.774 273.433 C 212.660 273.976,210.770 274.534,209.574 274.673 C 208.273 274.825,206.918 275.285,206.200 275.821 C 205.491 276.349,204.100 276.827,202.800 276.988 C 200.144 277.318,199.041 277.612,195.402 278.962 C 193.863 279.533,192.333 280.001,192.002 280.002 C 191.671 280.004,190.928 280.251,190.350 280.553 C 189.773 280.854,188.333 281.321,187.150 281.590 C 185.968 281.859,184.100 282.501,183.000 283.017 C 180.700 284.095,178.018 284.775,176.000 284.792 C 175.230 284.798,173.250 285.336,171.600 285.988 C 169.950 286.639,168.150 287.179,167.600 287.188 C 167.050 287.196,166.027 287.553,165.326 287.980 C 164.111 288.721,158.966 290.000,157.201 290.000 C 156.743 290.000,155.700 290.333,154.884 290.739 C 154.068 291.146,152.230 291.703,150.800 291.977 C 149.370 292.252,147.504 292.737,146.652 293.054 C 145.801 293.372,143.789 293.883,142.181 294.191 C 140.572 294.499,138.249 295.212,137.017 295.775 C 135.658 296.397,134.060 296.800,132.955 296.800 C 131.954 296.800,129.844 297.228,128.267 297.752 C 126.690 298.275,124.140 298.907,122.600 299.155 C 116.076 300.207,115.067 300.412,114.622 300.782 C 113.926 301.360,109.646 302.400,107.965 302.400 C 107.158 302.400,105.845 302.673,105.048 303.006 C 103.623 303.601,100.988 304.121,96.155 304.762 C 94.809 304.940,93.498 305.216,93.240 305.375 C 92.749 305.679,91.139 305.960,82.600 307.235 C 79.740 307.662,76.410 308.195,75.200 308.419 C 71.392 309.124,67.582 309.576,61.800 310.010 C 58.720 310.241,54.940 310.618,53.400 310.848 C 47.505 311.730,29.920 311.737,26.278 310.859 C 24.475 310.425,21.830 309.947,20.400 309.797 C 18.970 309.647,16.720 309.072,15.400 308.520 C 14.080 307.968,12.336 307.242,11.524 306.908 C 10.712 306.573,9.954 306.058,9.841 305.763 C 9.728 305.467,9.009 304.964,8.244 304.644 C 6.781 304.033,5.037 301.772,4.580 299.896 C 4.432 299.289,4.151 298.694,3.956 298.573 C 3.749 298.445,3.600 236.553,3.600 150.971 L 3.600 3.588 4.900 2.796 C 6.325 1.927,194.159 1.568,218.600 2.388 M142.522 326.892 C 142.290 327.391,141.901 328.295,141.658 328.900 C 141.416 329.505,141.041 330.000,140.827 330.000 C 140.612 330.000,140.005 330.432,139.477 330.959 C 138.950 331.487,137.951 332.211,137.259 332.570 C 136.567 332.928,136.000 333.371,136.000 333.555 C 136.000 333.989,130.611 338.000,130.028 338.000 C 129.783 338.000,129.378 338.450,129.127 339.000 C 128.877 339.550,128.527 340.000,128.350 340.000 C 128.173 340.000,127.413 340.540,126.661 341.200 C 125.909 341.860,125.151 342.400,124.976 342.400 C 124.800 342.400,124.076 342.985,123.366 343.700 C 121.024 346.058,119.812 347.106,118.881 347.581 C 117.802 348.130,115.641 349.989,111.386 354.027 C 110.938 354.452,110.377 354.800,110.139 354.800 C 109.900 354.800,108.605 355.970,107.260 357.400 C 105.915 358.830,104.663 360.000,104.479 360.000 C 104.295 360.000,103.527 360.560,102.772 361.244 C 102.017 361.928,100.912 362.663,100.316 362.877 C 99.720 363.092,99.120 363.623,98.982 364.058 C 98.844 364.493,98.300 365.045,97.773 365.285 C 97.246 365.525,96.708 366.059,96.577 366.471 C 96.446 366.884,95.870 367.529,95.296 367.905 C 94.722 368.281,93.433 369.446,92.431 370.495 C 91.430 371.543,90.389 372.400,90.117 372.400 C 89.845 372.400,87.952 374.073,85.911 376.118 C 83.870 378.163,81.750 380.123,81.200 380.475 C 80.650 380.826,78.549 382.649,76.531 384.526 C 74.512 386.403,72.487 388.139,72.031 388.384 C 71.574 388.628,71.200 389.061,71.200 389.346 C 71.200 389.632,70.770 390.095,70.244 390.376 C 69.718 390.658,69.059 391.315,68.780 391.837 C 68.501 392.360,67.939 392.892,67.532 393.022 C 67.124 393.151,66.525 393.771,66.200 394.400 C 65.875 395.029,65.276 395.649,64.868 395.778 C 64.461 395.908,63.899 396.440,63.620 396.962 C 63.341 397.484,62.682 398.108,62.156 398.347 C 61.630 398.587,61.200 399.047,61.200 399.369 C 61.200 399.691,60.674 400.265,60.031 400.645 C 59.389 401.025,58.638 401.755,58.364 402.268 C 58.089 402.780,57.621 403.200,57.324 403.200 C 57.026 403.200,56.572 403.663,56.314 404.230 C 56.055 404.796,55.339 405.521,54.722 405.840 C 54.105 406.159,53.600 406.656,53.600 406.943 C 53.600 407.230,53.170 407.695,52.644 407.976 C 52.118 408.258,51.459 408.915,51.180 409.437 C 50.901 409.960,50.330 410.495,49.912 410.628 C 49.493 410.761,48.962 411.284,48.731 411.791 C 48.501 412.297,47.901 412.932,47.400 413.200 C 46.898 413.468,46.259 414.115,45.980 414.637 C 45.701 415.160,45.130 415.695,44.712 415.828 C 44.293 415.961,43.762 416.484,43.531 416.991 C 43.301 417.497,42.682 418.142,42.156 418.424 C 41.630 418.705,41.200 419.149,41.200 419.410 C 41.200 420.093,35.679 426.448,31.807 430.223 C 29.988 431.995,28.218 433.975,27.873 434.623 C 27.153 435.972,24.604 438.800,24.108 438.800 C 23.925 438.800,23.560 439.295,23.296 439.900 C 22.700 441.270,20.676 443.856,17.692 447.063 C 16.431 448.418,14.989 450.128,14.488 450.863 C 13.986 451.598,12.996 452.990,12.288 453.956 C 11.579 454.922,10.766 456.135,10.480 456.653 C 10.194 457.170,9.610 457.780,9.184 458.009 C 8.757 458.237,8.124 458.973,7.778 459.643 C 7.120 460.914,4.735 462.214,3.752 461.837 C 3.282 461.657,3.213 452.219,3.299 399.912 L 3.400 338.200 4.789 337.751 C 6.010 337.356,6.359 337.417,7.681 338.251 C 8.508 338.773,9.436 339.200,9.743 339.200 C 10.051 339.200,10.549 339.498,10.851 339.862 C 11.691 340.875,13.768 341.598,15.887 341.616 C 16.939 341.624,19.420 341.993,21.400 342.434 C 26.303 343.527,37.084 344.180,40.668 343.600 C 43.274 343.179,53.630 342.303,62.200 341.779 C 64.400 341.644,66.740 341.358,67.400 341.143 C 68.984 340.627,78.563 339.208,80.600 339.188 C 81.480 339.179,82.650 338.914,83.200 338.600 C 83.750 338.286,84.797 338.022,85.526 338.014 C 86.256 338.006,87.218 337.805,87.664 337.566 C 88.110 337.327,90.635 336.980,93.274 336.795 C 96.875 336.542,98.260 336.289,98.822 335.780 C 99.735 334.954,103.543 334.015,106.011 334.006 C 107.007 334.003,108.177 333.752,108.611 333.448 C 109.045 333.144,110.210 332.792,111.200 332.665 C 117.736 331.829,120.745 331.207,122.083 330.417 C 123.118 329.806,124.509 329.472,126.683 329.313 C 128.890 329.151,130.364 328.792,131.731 328.084 C 133.146 327.351,134.691 326.989,137.522 326.729 C 140.337 326.470,141.477 326.205,141.733 325.749 C 142.312 324.714,143.042 325.772,142.522 326.892 M398.617 404.500 C 398.508 404.995,398.146 407.851,397.813 410.847 C 397.480 413.842,396.937 416.812,396.606 417.447 C 396.275 418.081,395.906 419.230,395.787 420.000 C 395.101 424.411,394.663 426.239,393.976 427.557 C 393.553 428.367,393.090 429.923,392.947 431.015 C 392.803 432.107,392.276 433.820,391.776 434.822 C 391.275 435.824,390.594 437.686,390.261 438.959 C 389.929 440.233,389.395 441.573,389.075 441.937 C 388.755 442.302,388.200 443.624,387.843 444.875 C 387.485 446.127,386.952 447.391,386.658 447.685 C 386.365 447.978,385.811 449.161,385.428 450.314 C 385.045 451.467,384.484 452.659,384.180 452.963 C 383.876 453.267,383.324 454.300,382.953 455.258 C 382.582 456.216,381.979 457.360,381.613 457.800 C 381.247 458.240,380.617 459.366,380.212 460.302 C 379.808 461.239,379.210 462.226,378.884 462.497 C 378.557 462.767,377.952 463.711,377.539 464.594 C 376.772 466.233,375.594 468.057,373.919 470.200 C 373.403 470.860,372.729 471.895,372.423 472.500 C 372.116 473.105,371.720 473.600,371.543 473.600 C 371.366 473.600,370.923 474.185,370.559 474.900 C 370.196 475.615,369.477 476.650,368.963 477.200 C 368.448 477.750,366.754 479.730,365.198 481.600 C 361.714 485.786,362.243 485.212,358.463 488.910 C 352.778 494.472,351.583 495.600,351.375 495.600 C 351.171 495.600,346.092 499.876,343.587 502.157 C 343.030 502.664,342.130 503.312,341.587 503.598 C 341.044 503.884,340.170 504.541,339.645 505.059 C 339.120 505.577,338.490 506.000,338.244 506.000 C 337.998 506.000,337.288 506.540,336.665 507.200 C 336.042 507.860,335.302 508.400,335.021 508.400 C 334.740 508.400,333.839 508.933,333.020 509.584 C 332.200 510.235,331.141 510.886,330.665 511.031 C 330.189 511.175,329.260 511.692,328.600 512.180 C 327.940 512.668,326.778 513.281,326.017 513.542 C 325.257 513.803,324.267 514.345,323.817 514.747 C 323.368 515.149,322.190 515.791,321.200 516.173 C 320.210 516.555,319.130 517.109,318.800 517.405 C 318.470 517.700,317.321 518.240,316.247 518.605 C 315.173 518.970,313.924 519.613,313.471 520.034 C 313.019 520.455,312.341 520.800,311.965 520.800 C 311.589 520.800,310.244 521.346,308.975 522.013 C 307.707 522.680,305.844 523.408,304.835 523.631 C 303.826 523.854,302.190 524.455,301.200 524.968 C 300.210 525.481,298.410 526.029,297.200 526.188 C 295.990 526.346,294.403 526.820,293.672 527.240 C 292.942 527.661,290.813 528.273,288.940 528.599 C 287.067 528.926,285.055 529.476,284.468 529.821 C 283.880 530.166,281.422 530.756,279.004 531.130 C 275.482 531.676,274.582 531.950,274.475 532.506 C 274.349 533.162,277.750 533.200,337.171 533.200 L 400.000 533.200 400.000 468.400 C 400.000 411.437,399.928 403.600,399.408 403.600 C 399.082 403.600,398.726 404.005,398.617 404.500 " stroke="none" fill="#f8f9f9" fill-rule="evenodd"></path><path id="path2" d="M6.097 3.520 C 5.695 3.784,5.615 33.401,5.697 151.932 L 5.800 300.013 7.698 301.706 C 12.286 305.799,12.687 306.054,15.054 306.375 C 16.609 306.586,17.551 306.947,18.002 307.503 C 19.776 309.694,64.891 309.814,67.884 307.636 C 68.842 306.938,69.966 306.770,75.819 306.448 C 81.595 306.129,82.894 305.938,84.320 305.195 C 85.598 304.529,87.135 304.233,90.702 303.968 C 97.116 303.491,98.013 303.335,98.550 302.601 C 99.101 301.848,102.946 301.220,107.079 301.208 C 109.583 301.201,110.098 301.071,111.028 300.209 C 112.158 299.162,112.923 298.971,117.365 298.630 C 119.336 298.479,120.369 298.195,120.965 297.640 C 121.591 297.057,122.852 296.743,126.000 296.387 C 128.916 296.058,130.445 295.698,131.000 295.209 C 131.440 294.822,132.700 294.394,133.800 294.260 C 139.299 293.586,140.852 293.227,141.513 292.477 C 142.053 291.864,143.086 291.607,146.347 291.275 C 149.721 290.930,150.670 290.686,151.440 289.962 C 152.229 289.222,153.063 289.021,156.448 288.759 C 160.029 288.481,160.637 288.323,161.577 287.422 C 162.218 286.807,163.113 286.396,163.822 286.390 C 165.746 286.374,168.505 285.609,168.979 284.961 C 169.572 284.150,172.024 283.621,175.242 283.610 C 177.495 283.601,178.041 283.454,178.959 282.603 C 180.091 281.554,180.585 281.392,183.777 281.023 C 184.954 280.887,186.102 280.468,186.613 279.988 C 187.155 279.478,188.575 278.989,190.466 278.660 C 192.508 278.305,193.737 277.863,194.330 277.270 C 194.809 276.791,195.335 276.391,195.500 276.381 C 201.434 275.996,203.737 275.655,204.040 275.115 C 204.503 274.287,206.146 273.707,208.896 273.400 C 210.159 273.259,211.329 272.912,211.496 272.630 C 212.005 271.771,213.462 271.200,215.148 271.200 C 217.047 271.200,218.519 270.693,219.634 269.655 C 220.414 268.928,222.349 268.414,224.340 268.404 C 224.863 268.402,225.775 267.869,226.400 267.200 C 227.280 266.258,227.861 266.000,229.102 266.000 C 230.227 266.000,230.989 265.716,231.743 265.018 C 232.749 264.085,233.286 263.923,236.957 263.437 C 237.814 263.324,238.894 262.882,239.357 262.454 C 240.318 261.568,242.784 260.806,244.700 260.802 C 245.415 260.801,246.000 260.627,246.000 260.416 C 246.000 259.519,247.801 258.400,249.245 258.400 C 250.233 258.400,251.122 258.078,251.869 257.451 C 252.491 256.929,253.810 256.379,254.800 256.229 C 258.257 255.707,258.800 255.533,258.800 254.948 C 258.800 254.277,261.099 253.200,262.531 253.200 C 263.082 253.200,263.803 252.780,264.230 252.212 C 264.736 251.538,265.527 251.140,266.715 250.962 C 267.673 250.818,268.957 250.280,269.567 249.766 C 270.178 249.252,271.386 248.672,272.251 248.478 C 273.117 248.284,274.340 247.646,274.971 247.062 C 275.601 246.478,276.462 246.000,276.885 246.000 C 277.818 246.000,279.294 245.261,279.689 244.597 C 279.848 244.329,280.838 243.878,281.889 243.595 C 282.940 243.312,284.160 242.770,284.600 242.390 C 285.721 241.423,287.015 240.800,287.904 240.800 C 288.320 240.800,289.067 240.368,289.563 239.839 C 290.060 239.311,291.261 238.678,292.233 238.433 C 293.366 238.148,294.000 237.767,294.000 237.372 C 294.000 237.028,294.774 236.413,295.747 235.982 C 296.708 235.557,297.729 234.927,298.015 234.582 C 298.302 234.236,299.153 233.696,299.907 233.381 C 300.662 233.066,301.634 232.356,302.068 231.804 C 302.503 231.252,303.055 230.800,303.296 230.800 C 303.536 230.800,304.198 230.366,304.767 229.836 C 307.958 226.859,309.563 225.600,310.166 225.600 C 310.552 225.600,311.015 225.102,311.247 224.437 C 311.484 223.758,312.029 223.179,312.558 223.046 C 313.056 222.921,313.663 222.380,313.907 221.844 C 314.151 221.308,314.679 220.765,315.079 220.638 C 315.480 220.511,315.986 220.001,316.204 219.504 C 316.422 219.007,317.005 218.422,317.500 218.205 C 317.995 217.988,318.400 217.614,318.400 217.375 C 318.400 216.805,320.116 215.200,320.726 215.200 C 320.987 215.200,321.200 214.866,321.200 214.458 C 321.200 214.050,321.706 213.285,322.323 212.758 C 322.941 212.231,323.759 211.127,324.140 210.305 C 324.521 209.483,325.185 208.622,325.616 208.391 C 326.047 208.161,326.400 207.723,326.400 207.420 C 326.400 207.116,326.940 206.358,327.600 205.735 C 328.260 205.112,328.800 204.446,328.800 204.254 C 328.800 204.062,329.347 203.282,330.017 202.520 C 330.686 201.758,331.341 200.597,331.472 199.940 C 331.603 199.283,332.134 198.468,332.652 198.129 C 333.194 197.774,333.779 196.812,334.032 195.856 C 334.274 194.945,334.791 193.840,335.180 193.400 C 335.570 192.960,336.099 191.975,336.355 191.211 C 336.611 190.448,337.231 189.368,337.732 188.811 C 338.234 188.255,338.865 186.900,339.134 185.800 C 339.403 184.700,339.950 183.524,340.350 183.186 C 340.794 182.810,341.276 181.487,341.588 179.786 C 341.914 178.005,342.423 176.639,342.998 176.000 C 343.493 175.450,344.016 174.218,344.160 173.263 C 344.303 172.308,344.769 170.845,345.194 170.012 C 346.034 168.366,346.792 164.420,346.797 161.674 C 346.800 159.958,347.340 158.447,348.136 157.930 C 349.340 157.147,349.713 121.822,348.564 117.400 C 347.189 112.111,346.800 110.055,346.558 106.800 C 346.414 104.857,346.043 102.981,345.693 102.423 C 344.924 101.197,344.485 99.404,344.032 95.647 C 343.837 94.023,343.524 92.583,343.338 92.447 C 342.433 91.786,342.006 90.739,341.598 88.185 C 341.346 86.609,340.840 85.054,340.432 84.601 C 339.613 83.691,338.800 81.504,338.800 80.210 C 338.800 79.731,338.368 78.934,337.841 78.438 C 337.244 77.877,336.781 76.866,336.615 75.761 C 336.444 74.620,335.990 73.652,335.345 73.054 C 334.708 72.464,334.259 71.518,334.119 70.474 C 333.968 69.346,333.604 68.632,332.966 68.214 C 332.449 67.876,331.810 66.845,331.534 65.902 C 331.259 64.966,330.736 63.982,330.372 63.716 C 330.008 63.450,329.484 62.685,329.207 62.016 C 328.930 61.347,328.558 60.800,328.380 60.800 C 327.715 60.800,326.807 59.512,326.395 57.982 C 326.137 57.024,325.730 56.400,325.364 56.400 C 325.031 56.400,324.502 55.785,324.188 55.033 C 323.874 54.281,322.578 52.604,321.308 51.307 C 317.730 47.650,316.432 46.067,316.175 45.044 C 316.045 44.526,315.523 43.880,315.014 43.607 C 314.505 43.335,313.892 42.682,313.653 42.156 C 313.413 41.630,312.975 41.200,312.678 41.200 C 312.382 41.200,311.706 40.739,311.177 40.175 C 310.647 39.611,309.628 38.788,308.912 38.346 C 307.683 37.586,304.485 34.756,301.778 32.030 C 301.106 31.354,300.259 30.800,299.896 30.800 C 299.533 30.800,298.823 30.395,298.318 29.900 C 297.813 29.405,296.862 28.730,296.204 28.400 C 295.546 28.070,294.517 27.305,293.918 26.700 C 293.318 26.095,292.543 25.600,292.197 25.600 C 291.850 25.600,291.169 25.229,290.683 24.776 C 290.197 24.322,289.033 23.611,288.095 23.196 C 287.158 22.781,286.292 22.183,286.171 21.868 C 286.050 21.552,285.221 21.178,284.328 21.035 C 283.239 20.861,282.364 20.385,281.664 19.588 C 280.915 18.734,280.261 18.400,279.337 18.400 C 277.725 18.400,276.223 17.839,275.144 16.833 C 274.684 16.405,273.619 15.938,272.777 15.796 C 271.935 15.654,271.011 15.254,270.723 14.907 C 269.955 13.980,267.842 13.200,266.102 13.200 C 264.764 13.200,263.001 12.418,262.398 11.558 C 262.286 11.399,260.871 11.085,259.251 10.861 C 257.145 10.569,256.037 10.198,255.356 9.559 C 254.533 8.785,253.746 8.618,249.506 8.314 C 245.421 8.021,244.328 7.799,242.932 6.981 C 241.646 6.227,240.687 6.000,238.798 6.000 C 233.511 6.000,226.646 5.151,224.800 4.268 L 223.000 3.408 114.800 3.299 C 55.290 3.238,6.374 3.338,6.097 3.520 " stroke="none" fill="#245ca4" fill-rule="evenodd"></path><path id="path3" d="M294.786 254.966 C 294.464 255.277,293.644 255.862,292.965 256.266 C 290.720 257.600,288.212 259.288,287.400 260.011 C 286.641 260.687,285.959 261.134,282.833 263.000 C 282.097 263.440,280.697 264.475,279.723 265.300 C 278.748 266.125,277.701 266.800,277.396 266.800 C 277.090 266.800,276.696 267.046,276.520 267.346 C 276.344 267.646,275.660 268.169,275.000 268.508 C 274.340 268.847,273.260 269.591,272.600 270.162 C 271.940 270.732,271.282 271.199,271.138 271.200 C 270.994 271.200,270.122 271.830,269.200 272.600 C 268.278 273.370,267.282 274.000,266.985 274.000 C 266.688 274.000,266.210 274.333,265.923 274.740 C 265.635 275.148,264.788 275.796,264.041 276.181 C 263.294 276.566,262.252 277.311,261.727 277.837 C 261.202 278.362,260.328 278.903,259.786 279.039 C 259.244 279.175,258.800 279.442,258.800 279.631 C 258.800 279.951,256.108 281.880,252.937 283.833 C 252.193 284.291,251.221 285.056,250.776 285.533 C 250.332 286.010,249.734 286.400,249.446 286.400 C 249.159 286.400,248.581 286.783,248.162 287.252 C 247.743 287.720,246.694 288.552,245.831 289.100 C 244.969 289.648,244.069 290.266,243.831 290.473 C 243.594 290.680,242.927 291.153,242.348 291.525 C 238.597 293.933,236.800 295.237,236.800 295.552 C 236.800 295.750,236.089 296.198,235.220 296.545 C 234.351 296.893,233.445 297.543,233.206 297.989 C 232.967 298.435,232.519 298.800,232.210 298.800 C 231.901 298.800,230.783 299.513,229.724 300.385 C 225.833 303.590,225.282 304.000,224.861 304.000 C 224.626 304.000,223.930 304.459,223.316 305.020 C 222.230 306.013,221.096 306.841,217.800 309.048 C 216.920 309.637,216.139 310.276,216.064 310.468 C 215.989 310.660,215.391 311.094,214.736 311.433 C 214.080 311.772,212.463 312.894,211.142 313.925 C 209.821 314.956,208.168 316.152,207.470 316.583 C 206.771 317.013,205.965 317.688,205.677 318.083 C 205.390 318.477,204.935 318.800,204.666 318.800 C 204.398 318.800,203.623 319.295,202.945 319.900 C 202.266 320.505,200.688 321.720,199.437 322.600 C 196.412 324.728,193.308 327.010,191.644 328.327 C 190.899 328.917,190.091 329.474,189.848 329.565 C 189.606 329.656,188.897 330.241,188.273 330.865 C 187.649 331.489,186.966 332.000,186.755 332.000 C 186.544 332.000,185.973 332.360,185.486 332.800 C 184.165 333.993,181.145 336.417,179.006 338.000 C 177.966 338.770,176.720 339.761,176.238 340.201 C 175.756 340.642,174.915 341.295,174.370 341.652 C 173.825 342.009,172.934 342.676,172.389 343.133 C 171.845 343.591,170.500 344.685,169.400 345.564 C 168.300 346.443,166.860 347.621,166.200 348.181 C 163.155 350.766,162.069 351.600,161.752 351.600 C 161.563 351.600,160.957 352.044,160.404 352.588 C 159.472 353.504,157.228 355.421,153.453 358.527 C 152.602 359.227,151.581 360.101,151.183 360.470 C 150.786 360.838,150.042 361.355,149.530 361.619 C 149.019 361.882,148.150 362.536,147.600 363.072 C 147.050 363.607,145.439 364.980,144.020 366.123 C 142.601 367.265,141.047 368.560,140.568 369.000 C 140.089 369.440,139.047 370.340,138.254 371.000 C 137.460 371.660,136.242 372.695,135.546 373.300 C 134.851 373.905,134.135 374.400,133.957 374.400 C 133.778 374.400,132.914 375.104,132.037 375.964 C 131.159 376.824,129.760 378.039,128.926 378.664 C 128.093 379.289,126.845 380.340,126.154 381.000 C 125.462 381.660,124.237 382.740,123.432 383.400 C 122.627 384.060,121.339 385.185,120.571 385.900 C 119.802 386.615,119.006 387.200,118.802 387.200 C 118.598 387.200,118.109 387.534,117.716 387.943 C 117.322 388.351,114.660 390.719,111.800 393.206 C 108.940 395.692,106.101 398.193,105.491 398.763 C 104.881 399.333,103.801 400.291,103.091 400.891 C 102.381 401.491,101.220 402.481,100.510 403.091 C 99.801 403.701,98.567 404.740,97.769 405.400 C 93.088 409.270,63.024 439.023,57.583 445.171 C 55.942 447.024,54.105 449.000,53.500 449.560 C 52.895 450.120,52.400 450.796,52.400 451.062 C 52.400 451.328,51.860 451.930,51.200 452.400 C 50.540 452.870,50.000 453.454,50.000 453.699 C 50.000 453.943,49.415 454.726,48.700 455.438 C 47.985 456.150,46.860 457.394,46.200 458.202 C 45.540 459.010,44.550 460.180,44.000 460.802 C 41.280 463.878,39.600 465.985,39.600 466.318 C 39.600 466.522,39.150 467.026,38.600 467.439 C 38.050 467.852,37.600 468.350,37.600 468.546 C 37.600 468.743,37.015 469.568,36.300 470.380 C 34.314 472.636,33.478 473.672,32.411 475.200 C 31.873 475.970,31.110 476.835,30.716 477.123 C 30.322 477.410,30.000 477.865,30.000 478.133 C 30.000 478.563,28.934 480.113,25.869 484.142 C 25.391 484.770,24.730 485.769,24.400 486.362 C 23.165 488.580,22.174 490.133,21.326 491.177 C 20.845 491.769,20.151 493.006,19.783 493.927 C 19.414 494.847,18.943 495.600,18.734 495.600 C 18.526 495.600,17.893 496.545,17.328 497.700 C 16.762 498.855,15.700 500.880,14.966 502.200 C 14.233 503.520,13.258 505.410,12.799 506.400 C 12.340 507.390,11.433 509.280,10.782 510.600 C 10.132 511.920,9.600 513.332,9.600 513.738 C 9.600 514.144,9.271 514.954,8.870 515.538 C 7.962 516.859,7.338 518.534,7.001 520.558 C 6.859 521.416,6.456 522.554,6.106 523.087 C 4.595 525.393,3.896 533.200,5.200 533.200 C 5.913 533.200,6.000 532.933,6.000 530.747 C 6.000 528.944,6.225 527.930,6.851 526.918 C 7.319 526.161,7.931 524.221,8.211 522.608 C 8.497 520.962,9.087 519.176,9.555 518.538 C 10.015 517.912,10.576 516.410,10.803 515.200 C 11.030 513.990,11.396 512.939,11.616 512.864 C 12.169 512.676,13.200 510.604,13.200 509.680 C 13.200 509.262,13.710 508.217,14.332 507.357 C 14.955 506.497,15.591 505.291,15.745 504.675 C 15.900 504.060,16.560 502.820,17.213 501.919 C 17.866 501.017,18.400 499.954,18.400 499.556 C 18.400 499.158,18.829 498.420,19.354 497.916 C 19.878 497.412,20.526 496.314,20.793 495.476 C 21.060 494.637,21.637 493.557,22.076 493.076 C 23.295 491.737,24.704 489.580,25.567 487.728 C 25.996 486.809,26.719 485.857,27.174 485.614 C 27.628 485.371,28.000 484.941,28.000 484.658 C 28.000 484.375,28.630 483.408,29.400 482.508 C 30.170 481.609,30.800 480.614,30.800 480.298 C 30.800 479.981,31.385 479.074,32.100 478.281 C 32.815 477.487,33.876 476.245,34.457 475.519 C 35.038 474.794,36.151 473.472,36.929 472.583 C 37.707 471.694,38.464 470.485,38.611 469.897 C 38.759 469.310,39.237 468.715,39.674 468.577 C 40.111 468.438,40.648 467.809,40.867 467.179 C 41.087 466.548,41.612 465.923,42.033 465.789 C 42.455 465.656,42.800 465.371,42.800 465.157 C 42.800 464.943,43.475 464.086,44.300 463.251 C 46.637 460.888,48.051 459.115,48.725 457.704 C 49.066 456.991,49.663 456.307,50.052 456.184 C 50.441 456.060,50.872 455.603,51.010 455.169 C 51.148 454.734,51.679 454.105,52.190 453.770 C 52.701 453.435,53.332 452.647,53.592 452.019 C 53.853 451.390,54.409 450.786,54.828 450.677 C 55.247 450.567,55.775 449.993,56.000 449.400 C 56.225 448.807,56.767 448.229,57.205 448.115 C 57.642 448.000,58.000 447.739,58.000 447.533 C 58.000 447.328,59.170 446.001,60.600 444.585 C 62.030 443.169,63.201 441.873,63.201 441.705 C 63.202 441.537,63.741 441.040,64.400 440.600 C 65.059 440.160,65.598 439.708,65.599 439.595 C 65.600 439.392,76.627 428.206,77.661 427.359 C 77.958 427.116,78.948 426.126,79.861 425.159 C 80.775 424.191,83.115 421.836,85.061 419.925 C 87.008 418.014,88.780 416.269,89.000 416.047 C 92.647 412.362,97.715 407.600,97.990 407.600 C 98.186 407.600,98.457 407.249,98.594 406.820 C 98.730 406.392,99.237 405.921,99.720 405.775 C 100.204 405.628,101.093 405.034,101.696 404.454 C 102.760 403.430,103.669 402.640,107.000 399.838 C 111.130 396.364,113.372 394.333,113.885 393.600 C 114.193 393.160,114.675 392.800,114.955 392.800 C 115.235 392.800,115.704 392.353,115.996 391.807 C 116.289 391.260,116.855 390.710,117.254 390.583 C 117.653 390.456,118.356 389.823,118.817 389.176 C 119.278 388.529,119.905 388.000,120.211 388.000 C 120.517 388.000,121.270 387.548,121.884 386.995 C 122.498 386.442,123.900 385.265,125.000 384.380 C 127.033 382.744,131.405 378.860,133.869 376.500 C 134.616 375.785,135.427 375.200,135.671 375.200 C 135.916 375.200,136.495 374.832,136.958 374.383 C 137.421 373.933,138.700 372.851,139.800 371.977 C 143.044 369.402,144.813 367.882,146.175 366.500 C 146.880 365.785,147.630 365.200,147.842 365.200 C 148.054 365.200,148.546 364.660,148.936 364.000 C 149.326 363.340,149.971 362.800,150.368 362.800 C 150.766 362.800,151.520 362.377,152.045 361.859 C 152.570 361.342,153.198 360.847,153.439 360.759 C 154.078 360.528,157.101 358.038,158.855 356.300 C 159.687 355.475,160.543 354.800,160.757 354.800 C 160.971 354.800,161.250 354.472,161.377 354.072 C 161.504 353.672,162.236 353.045,163.004 352.679 C 163.772 352.312,164.400 351.821,164.400 351.586 C 164.400 351.351,165.023 350.899,165.786 350.580 C 167.086 350.037,168.006 349.304,171.043 346.392 C 171.727 345.736,172.486 345.200,172.731 345.200 C 172.976 345.200,173.565 344.674,174.041 344.030 C 174.517 343.387,175.327 342.754,175.841 342.625 C 176.356 342.496,176.968 342.033,177.203 341.595 C 177.437 341.158,177.850 340.800,178.121 340.800 C 178.393 340.800,179.500 340.068,180.583 339.174 C 181.665 338.279,182.877 337.373,183.275 337.160 C 183.674 336.946,184.000 336.530,184.000 336.234 C 184.000 335.939,184.519 335.482,185.153 335.219 C 185.787 334.957,186.686 334.305,187.151 333.771 C 187.615 333.237,188.247 332.800,188.555 332.800 C 188.863 332.800,189.706 332.248,190.428 331.574 C 191.150 330.900,192.227 330.096,192.822 329.789 C 193.416 329.481,194.007 328.959,194.134 328.627 C 194.261 328.296,195.003 327.759,195.783 327.433 C 196.562 327.107,197.200 326.581,197.200 326.264 C 197.200 325.946,197.605 325.584,198.100 325.458 C 199.142 325.193,204.400 321.320,204.400 320.817 C 204.400 320.630,204.926 320.295,205.569 320.071 C 206.212 319.847,206.938 319.289,207.183 318.832 C 207.428 318.374,207.940 318.000,208.321 318.000 C 209.005 318.000,212.047 315.788,214.000 313.872 C 214.550 313.333,215.585 312.596,216.300 312.235 C 217.015 311.875,217.600 311.424,217.600 311.233 C 217.600 311.043,218.299 310.607,219.154 310.265 C 220.009 309.923,221.044 309.229,221.454 308.722 C 221.864 308.215,222.680 307.553,223.266 307.250 C 223.853 306.948,224.415 306.388,224.515 306.005 C 224.625 305.581,225.258 305.203,226.128 305.040 C 226.932 304.889,228.039 304.263,228.655 303.610 C 229.258 302.971,230.155 302.347,230.649 302.223 C 231.143 302.100,231.655 301.658,231.787 301.242 C 231.919 300.826,232.537 300.275,233.161 300.016 C 233.786 299.757,234.496 299.108,234.740 298.573 C 235.018 297.962,235.521 297.598,236.091 297.594 C 237.364 297.585,238.996 296.464,241.758 293.700 C 242.472 292.985,243.423 292.400,243.870 292.400 C 244.317 292.400,245.176 291.943,245.778 291.385 C 246.380 290.827,247.351 290.065,247.936 289.692 C 248.521 289.319,249.218 288.721,249.484 288.362 C 249.750 288.004,250.498 287.491,251.146 287.222 C 251.794 286.954,252.411 286.401,252.518 285.994 C 252.643 285.516,253.237 285.154,254.194 284.975 C 255.555 284.719,256.653 283.914,259.615 280.999 C 260.173 280.450,260.987 280.000,261.422 280.000 C 262.190 280.000,265.155 277.848,267.204 275.802 C 267.757 275.251,268.494 274.800,268.842 274.800 C 269.191 274.800,269.819 274.421,270.238 273.957 C 270.657 273.494,271.712 272.752,272.582 272.308 C 273.451 271.864,274.499 271.073,274.911 270.550 C 275.322 270.028,275.995 269.600,276.406 269.600 C 276.818 269.600,277.404 269.244,277.709 268.808 C 278.015 268.372,278.967 267.722,279.826 267.364 C 280.684 267.005,281.627 266.369,281.920 265.950 C 282.214 265.531,283.071 264.930,283.827 264.615 C 284.582 264.299,285.200 263.850,285.200 263.617 C 285.200 263.384,285.923 262.904,286.807 262.550 C 287.692 262.197,288.755 261.474,289.172 260.945 C 289.588 260.416,290.477 259.792,291.148 259.558 C 291.819 259.324,292.465 258.825,292.584 258.449 C 293.127 256.740,299.767 256.748,301.179 258.459 C 301.534 258.889,302.822 259.424,304.181 259.706 C 305.527 259.985,306.927 260.563,307.399 261.035 C 307.859 261.495,308.961 261.987,309.848 262.129 C 310.735 262.271,311.969 262.824,312.591 263.359 C 313.213 263.893,314.549 264.558,315.561 264.837 C 316.572 265.116,317.676 265.654,318.013 266.033 C 318.351 266.412,319.357 266.919,320.249 267.159 C 321.141 267.400,322.375 268.030,322.992 268.559 C 323.609 269.089,324.606 269.621,325.208 269.742 C 325.811 269.862,326.559 270.216,326.871 270.528 C 327.611 271.268,329.809 272.400,330.505 272.400 C 330.805 272.400,331.559 272.931,332.181 273.581 C 332.803 274.230,333.808 274.870,334.415 275.003 C 335.021 275.136,335.819 275.579,336.187 275.986 C 336.556 276.394,337.379 276.943,338.016 277.206 C 338.652 277.470,339.282 278.027,339.414 278.443 C 339.546 278.859,339.803 279.200,339.986 279.200 C 340.352 279.200,343.715 281.865,345.916 283.900 C 346.690 284.615,347.544 285.200,347.815 285.200 C 348.086 285.200,348.603 285.650,348.963 286.200 C 349.324 286.750,349.863 287.200,350.162 287.200 C 350.461 287.200,351.186 287.830,351.773 288.600 C 352.360 289.370,353.106 290.000,353.430 290.000 C 353.755 290.000,354.192 290.453,354.403 291.007 C 354.613 291.561,355.223 292.181,355.759 292.384 C 356.294 292.588,356.836 293.079,356.965 293.477 C 357.093 293.875,357.738 294.507,358.399 294.881 C 359.060 295.256,359.600 295.829,359.600 296.154 C 359.600 296.480,359.956 296.859,360.392 296.997 C 360.827 297.136,361.487 297.762,361.858 298.390 C 362.229 299.018,362.937 299.716,363.431 299.942 C 363.926 300.167,364.440 300.695,364.573 301.115 C 364.706 301.535,365.262 302.082,365.808 302.331 C 366.353 302.579,366.800 303.053,366.800 303.382 C 366.800 303.712,367.259 304.282,367.819 304.649 C 368.380 305.017,369.090 305.921,369.399 306.659 C 369.707 307.396,370.136 308.000,370.352 308.000 C 370.567 308.000,371.149 308.810,371.643 309.801 C 372.138 310.791,372.960 311.875,373.471 312.210 C 373.982 312.545,374.400 313.176,374.400 313.613 C 374.400 314.050,374.775 314.721,375.233 315.104 C 375.692 315.487,376.332 316.451,376.656 317.247 C 376.980 318.043,377.690 319.082,378.234 319.555 C 378.778 320.028,379.328 320.939,379.456 321.580 C 379.584 322.220,380.035 323.116,380.458 323.570 C 380.880 324.023,381.575 325.210,382.002 326.206 C 382.429 327.202,383.036 328.116,383.350 328.236 C 383.664 328.357,384.031 329.041,384.166 329.758 C 384.300 330.474,384.948 331.575,385.605 332.205 C 386.276 332.848,386.800 333.767,386.800 334.301 C 386.800 335.377,387.370 336.623,388.401 337.800 C 388.786 338.240,389.228 339.312,389.384 340.182 C 389.540 341.052,390.095 342.273,390.618 342.894 C 391.140 343.515,391.677 344.693,391.811 345.512 C 392.330 348.694,392.478 349.192,393.169 350.081 C 393.584 350.615,394.093 352.423,394.386 354.400 C 394.663 356.270,395.211 358.363,395.602 359.051 C 396.557 360.726,396.715 361.644,397.195 368.297 C 397.556 373.289,397.814 375.236,398.626 379.100 C 398.730 379.595,399.082 380.000,399.408 380.000 C 399.907 380.000,400.000 378.962,400.000 373.400 C 400.000 367.938,399.901 366.800,399.427 366.800 C 398.705 366.800,398.561 366.277,397.989 361.600 C 397.734 359.510,397.100 356.630,396.580 355.200 C 396.061 353.770,395.443 351.623,395.207 350.430 C 394.971 349.236,394.431 347.698,394.007 347.011 C 393.583 346.325,393.113 344.995,392.963 344.056 C 392.812 343.117,392.243 341.691,391.697 340.886 C 391.151 340.082,390.449 338.563,390.137 337.512 C 389.825 336.460,389.403 335.600,389.201 335.600 C 388.999 335.600,388.510 334.687,388.116 333.571 C 387.722 332.455,387.087 331.205,386.704 330.792 C 386.322 330.380,385.551 329.088,384.992 327.922 C 383.494 324.796,382.312 322.717,381.316 321.455 C 380.831 320.838,380.311 319.944,380.163 319.467 C 380.014 318.990,379.421 318.035,378.846 317.345 C 378.271 316.655,377.080 314.882,376.200 313.405 C 375.320 311.928,374.403 310.509,374.163 310.251 C 373.922 309.993,373.243 309.066,372.653 308.191 C 369.889 304.090,369.209 303.325,361.521 295.664 C 357.232 291.391,352.975 287.411,350.453 285.318 C 349.712 284.703,348.542 283.714,347.853 283.121 C 342.920 278.873,339.837 276.341,339.146 275.971 C 338.702 275.734,337.993 275.193,337.570 274.770 C 337.146 274.346,336.547 274.000,336.238 274.000 C 335.929 274.000,334.922 273.370,334.000 272.600 C 333.078 271.830,331.981 271.200,331.562 271.200 C 331.143 271.200,330.429 270.829,329.975 270.375 C 329.521 269.921,328.306 269.189,327.275 268.747 C 326.244 268.304,325.130 267.714,324.800 267.433 C 324.470 267.153,323.390 266.611,322.400 266.228 C 321.410 265.846,320.321 265.283,319.980 264.977 C 319.639 264.671,318.568 264.142,317.600 263.800 C 316.632 263.458,315.561 262.929,315.220 262.624 C 314.879 262.319,313.539 261.698,312.243 261.245 C 310.946 260.791,309.596 260.173,309.243 259.871 C 308.889 259.569,307.700 259.082,306.600 258.788 C 305.500 258.495,304.150 257.928,303.600 257.529 C 303.050 257.130,301.547 256.531,300.260 256.197 C 298.973 255.863,297.538 255.322,297.071 254.995 C 296.012 254.253,295.530 254.247,294.786 254.966 M141.770 325.733 C 141.609 326.154,141.051 326.406,140.257 326.416 L 139.000 326.431 140.300 326.996 C 141.015 327.307,141.600 327.770,141.600 328.024 C 141.600 328.586,137.974 331.990,137.370 331.996 C 137.133 331.998,136.509 332.458,135.983 333.018 C 135.458 333.577,133.963 334.792,132.662 335.718 C 131.361 336.643,129.487 338.177,128.497 339.127 C 127.507 340.077,126.046 341.274,125.249 341.787 C 124.452 342.300,122.810 343.652,121.600 344.791 C 120.390 345.930,118.924 347.113,118.342 347.420 C 117.405 347.913,116.128 348.985,113.915 351.134 C 112.919 352.101,112.743 352.262,111.211 353.593 C 110.447 354.257,109.990 354.800,110.197 354.800 C 110.403 354.800,110.938 354.452,111.386 354.027 C 115.641 349.989,117.802 348.130,118.881 347.581 C 119.812 347.106,121.024 346.058,123.366 343.700 C 124.076 342.985,124.800 342.400,124.976 342.400 C 125.151 342.400,125.909 341.860,126.661 341.200 C 127.413 340.540,128.173 340.000,128.350 340.000 C 128.527 340.000,128.877 339.550,129.127 339.000 C 129.378 338.450,129.783 338.000,130.028 338.000 C 130.611 338.000,136.000 333.989,136.000 333.555 C 136.000 333.371,136.567 332.928,137.259 332.570 C 137.951 332.211,138.950 331.487,139.477 330.959 C 140.005 330.432,140.612 330.000,140.827 330.000 C 141.041 330.000,141.416 329.505,141.658 328.900 C 141.901 328.295,142.290 327.391,142.522 326.892 C 142.826 326.238,142.815 325.855,142.485 325.525 C 142.140 325.180,141.963 325.232,141.770 325.733 M133.400 327.298 C 131.867 327.854,129.654 329.197,130.267 329.199 C 130.524 329.199,131.600 328.829,132.659 328.374 C 133.719 327.920,135.219 327.399,135.993 327.215 L 137.400 326.880 136.000 326.872 C 135.230 326.867,134.060 327.059,133.400 327.298 M124.110 329.588 C 123.401 329.757,122.330 330.216,121.731 330.609 C 121.132 331.001,119.642 331.451,118.421 331.609 L 116.200 331.895 118.104 331.948 C 119.215 331.978,120.716 331.685,121.704 331.243 C 124.534 329.980,124.912 329.871,127.400 329.591 L 129.800 329.322 127.600 329.302 C 126.390 329.291,124.820 329.420,124.110 329.588 M113.200 332.400 C 112.870 332.613,111.880 332.796,111.000 332.807 C 110.120 332.817,109.058 333.084,108.640 333.401 C 107.956 333.918,108.088 333.952,109.937 333.733 C 112.724 333.403,116.710 332.065,115.000 332.034 C 114.340 332.022,113.530 332.187,113.200 332.400 M101.714 334.574 C 99.800 335.038,98.169 335.902,98.529 336.262 C 98.610 336.344,99.380 336.104,100.239 335.729 C 101.097 335.355,103.150 334.831,104.800 334.566 C 107.594 334.117,107.663 334.084,105.800 334.076 C 104.700 334.072,102.861 334.296,101.714 334.574 M92.577 336.804 C 90.364 336.961,88.171 337.294,87.703 337.545 C 87.235 337.795,86.256 338.006,85.526 338.014 C 84.797 338.022,83.750 338.303,83.200 338.639 L 82.200 339.250 83.200 338.989 C 83.750 338.846,85.100 338.582,86.200 338.403 C 87.300 338.224,88.707 337.880,89.326 337.639 C 89.945 337.397,91.835 337.187,93.526 337.172 C 95.217 337.156,96.960 336.989,97.400 336.800 L 98.200 336.456 97.400 336.487 C 96.960 336.505,94.790 336.647,92.577 336.804 M4.789 337.751 L 3.400 338.200 3.299 399.912 C 3.213 452.219,3.282 461.657,3.752 461.837 C 4.735 462.214,7.120 460.914,7.778 459.643 C 8.124 458.973,8.757 458.237,9.184 458.009 C 9.610 457.780,10.194 457.170,10.480 456.653 C 10.766 456.135,11.579 454.922,12.288 453.956 C 12.996 452.990,13.986 451.598,14.488 450.863 C 14.989 450.128,16.431 448.418,17.692 447.063 C 20.676 443.856,22.700 441.270,23.296 439.900 C 23.560 439.295,23.925 438.800,24.108 438.800 C 24.604 438.800,27.153 435.972,27.873 434.623 C 28.218 433.975,29.988 431.995,31.807 430.223 C 35.679 426.448,41.200 420.093,41.200 419.410 C 41.200 419.149,41.647 418.696,42.193 418.404 C 42.740 418.111,43.295 417.530,43.428 417.112 C 43.561 416.693,44.084 416.162,44.591 415.931 C 45.097 415.701,45.732 415.101,46.000 414.600 C 46.268 414.098,46.915 413.459,47.437 413.180 C 47.960 412.901,48.495 412.330,48.628 411.912 C 48.761 411.493,49.284 410.962,49.791 410.731 C 50.297 410.501,50.932 409.901,51.200 409.400 C 51.468 408.898,52.118 408.258,52.644 407.976 C 53.170 407.695,53.600 407.221,53.600 406.924 C 53.600 406.626,54.063 406.172,54.630 405.914 C 55.196 405.655,55.921 404.939,56.240 404.322 C 56.559 403.705,57.056 403.200,57.343 403.200 C 57.630 403.200,58.089 402.780,58.364 402.268 C 58.638 401.755,59.389 401.025,60.031 400.645 C 60.674 400.265,61.200 399.691,61.200 399.369 C 61.200 399.047,61.630 398.587,62.156 398.347 C 62.682 398.108,63.341 397.484,63.620 396.962 C 63.899 396.440,64.461 395.908,64.868 395.778 C 65.276 395.649,65.875 395.029,66.200 394.400 C 66.525 393.771,67.124 393.151,67.532 393.022 C 67.939 392.892,68.501 392.360,68.780 391.837 C 69.059 391.315,69.718 390.658,70.244 390.376 C 70.770 390.095,71.200 389.632,71.200 389.346 C 71.200 389.061,71.574 388.628,72.031 388.384 C 72.487 388.139,74.512 386.403,76.531 384.526 C 78.549 382.649,80.650 380.826,81.200 380.475 C 81.750 380.123,83.870 378.163,85.911 376.118 C 87.952 374.073,89.845 372.400,90.117 372.400 C 90.389 372.400,91.430 371.543,92.431 370.495 C 93.433 369.446,94.722 368.281,95.296 367.905 C 95.870 367.529,96.452 366.866,96.590 366.431 C 96.728 365.997,97.203 365.526,97.645 365.386 C 98.087 365.245,98.643 364.705,98.880 364.185 C 99.116 363.665,99.780 363.071,100.355 362.864 C 100.930 362.657,102.017 361.928,102.772 361.244 C 103.527 360.560,104.293 360.000,104.475 360.000 C 104.874 360.000,109.595 355.061,109.391 354.858 C 109.312 354.779,108.082 355.904,106.657 357.357 C 105.231 358.811,103.916 360.003,103.733 360.006 C 103.550 360.010,102.791 360.550,102.046 361.206 C 101.301 361.863,100.551 362.400,100.380 362.400 C 100.209 362.400,97.870 364.560,95.184 367.200 C 92.497 369.840,90.130 372.000,89.924 372.000 C 89.719 372.000,87.807 373.726,85.675 375.836 C 83.544 377.946,81.463 379.854,81.052 380.076 C 78.677 381.357,42.145 417.412,39.324 421.259 C 37.745 423.411,36.201 425.123,31.376 430.072 C 29.299 432.201,27.600 434.096,27.600 434.282 C 27.600 434.469,26.565 435.732,25.300 437.089 C 24.035 438.447,22.370 440.480,21.600 441.608 C 20.830 442.736,19.615 444.313,18.900 445.113 C 18.185 445.912,17.600 446.679,17.600 446.816 C 17.600 446.953,17.170 447.295,16.644 447.576 C 16.118 447.858,15.475 448.555,15.215 449.127 C 14.955 449.698,14.395 450.408,13.971 450.705 C 13.547 451.002,13.200 451.463,13.200 451.730 C 13.200 451.997,12.488 453.111,11.618 454.207 C 8.887 457.647,7.556 459.374,7.032 460.159 C 6.355 461.172,4.589 460.756,4.253 459.504 C 3.842 457.970,3.963 340.549,4.377 339.460 C 5.092 337.581,7.499 338.083,11.154 340.872 C 11.679 341.272,12.489 341.593,12.954 341.584 C 13.645 341.572,13.581 341.473,12.600 341.046 C 11.940 340.758,11.153 340.225,10.851 339.861 C 10.549 339.498,10.051 339.200,9.743 339.200 C 9.436 339.200,8.508 338.773,7.681 338.251 C 6.359 337.417,6.010 337.356,4.789 337.751 M73.200 340.022 C 67.821 340.852,65.153 341.695,69.000 341.349 C 70.320 341.230,73.200 340.792,75.400 340.375 C 77.600 339.959,79.940 339.551,80.600 339.469 C 81.260 339.387,80.900 339.318,79.800 339.316 C 78.700 339.313,75.730 339.631,73.200 340.022 M17.200 342.192 C 18.850 342.471,21.460 342.983,23.000 343.331 C 27.955 344.450,48.753 344.198,54.599 342.949 C 55.259 342.808,58.139 342.456,60.999 342.168 C 66.015 341.661,66.058 341.649,62.200 341.833 C 55.514 342.151,43.565 343.132,40.668 343.600 C 37.084 344.180,26.303 343.527,21.400 342.434 C 19.420 341.993,16.990 341.643,16.000 341.658 C 14.439 341.681,14.598 341.751,17.200 342.192 M398.592 389.100 C 398.458 389.925,398.187 391.432,397.989 392.448 C 397.792 393.465,397.443 397.515,397.213 401.448 C 396.718 409.925,396.581 410.904,395.597 413.000 C 395.173 413.903,394.648 416.429,394.392 418.795 C 394.143 421.103,393.800 423.083,393.629 423.195 C 392.904 423.675,392.287 425.502,391.955 428.157 C 391.727 429.977,391.295 431.413,390.753 432.147 C 390.287 432.778,389.643 434.569,389.320 436.127 C 388.998 437.685,388.487 439.149,388.185 439.380 C 387.462 439.933,386.800 441.764,386.800 443.210 C 386.800 443.848,386.464 444.691,386.054 445.084 C 385.106 445.995,384.577 447.062,384.269 448.688 C 384.135 449.396,383.670 450.330,383.235 450.765 C 382.801 451.199,382.218 452.329,381.940 453.277 C 381.662 454.225,381.112 455.235,380.717 455.523 C 380.323 455.810,379.797 456.851,379.549 457.835 C 379.301 458.820,378.788 459.845,378.409 460.113 C 377.616 460.672,376.400 462.877,376.400 463.753 C 376.400 464.079,376.040 464.460,375.601 464.600 C 375.161 464.739,374.687 465.336,374.547 465.927 C 374.407 466.517,373.798 467.495,373.194 468.100 C 372.591 468.705,371.859 469.785,371.569 470.500 C 371.278 471.215,370.741 472.018,370.375 472.284 C 370.010 472.550,369.484 473.315,369.207 473.984 C 368.930 474.653,368.498 475.200,368.248 475.200 C 367.997 475.200,367.540 475.605,367.232 476.100 C 366.413 477.417,364.415 479.878,362.700 481.684 C 361.875 482.553,361.200 483.507,361.200 483.805 C 361.200 484.102,360.869 484.451,360.464 484.580 C 360.059 484.708,359.490 485.257,359.200 485.800 C 358.910 486.343,358.339 486.892,357.932 487.022 C 357.524 487.151,356.925 487.771,356.600 488.400 C 356.275 489.029,355.676 489.649,355.268 489.778 C 354.861 489.908,354.289 490.460,353.996 491.007 C 353.704 491.553,353.217 492.000,352.914 492.000 C 352.611 492.000,352.058 492.531,351.685 493.181 C 351.312 493.830,350.593 494.466,350.086 494.593 C 349.216 494.811,347.224 496.425,344.770 498.900 C 344.170 499.505,343.494 500.000,343.267 500.000 C 343.040 500.000,342.470 500.540,342.000 501.200 C 341.530 501.860,340.880 502.400,340.555 502.400 C 340.230 502.400,339.528 502.836,338.995 503.369 C 338.462 503.902,337.674 504.449,337.245 504.586 C 336.815 504.722,335.784 505.456,334.954 506.217 C 334.123 506.978,333.150 507.600,332.792 507.600 C 332.433 507.600,331.742 508.023,331.256 508.541 C 330.770 509.058,329.662 509.716,328.794 510.002 C 327.925 510.289,327.111 510.850,326.984 511.249 C 326.779 511.898,324.650 512.792,323.297 512.798 C 323.021 512.799,322.418 513.233,321.957 513.763 C 321.497 514.293,320.495 514.843,319.732 514.986 C 318.968 515.130,317.790 515.776,317.113 516.423 C 316.273 517.226,315.473 517.600,314.596 517.600 C 313.783 517.600,312.779 518.022,311.867 518.747 C 311.073 519.378,309.725 520.006,308.872 520.142 C 308.019 520.279,306.879 520.738,306.339 521.162 C 305.799 521.587,304.042 522.207,302.434 522.539 C 300.743 522.889,299.150 523.483,298.655 523.949 C 298.053 524.514,296.861 524.869,294.640 525.145 C 292.521 525.408,291.103 525.817,290.331 526.388 C 289.520 526.988,288.167 527.353,285.738 527.629 C 283.400 527.895,281.926 528.283,281.148 528.837 C 280.285 529.451,278.758 529.791,274.974 530.211 C 269.190 530.851,267.200 531.433,267.200 532.480 C 267.200 533.568,274.210 533.572,274.494 532.484 C 274.646 531.904,275.532 531.640,279.132 531.099 C 281.579 530.731,284.002 530.155,284.514 529.819 C 285.027 529.483,286.999 528.938,288.896 528.607 C 290.793 528.276,292.942 527.661,293.672 527.240 C 294.403 526.820,295.990 526.346,297.200 526.188 C 298.410 526.029,300.210 525.481,301.200 524.968 C 302.190 524.455,303.826 523.854,304.835 523.631 C 305.844 523.408,307.707 522.680,308.975 522.013 C 310.244 521.346,311.589 520.800,311.965 520.800 C 312.341 520.800,313.019 520.455,313.471 520.034 C 313.924 519.613,315.173 518.970,316.247 518.605 C 317.321 518.240,318.470 517.700,318.800 517.405 C 319.130 517.109,320.210 516.555,321.200 516.173 C 322.190 515.791,323.368 515.149,323.817 514.747 C 324.267 514.345,325.257 513.803,326.017 513.542 C 326.778 513.281,327.940 512.668,328.600 512.180 C 329.260 511.692,330.189 511.175,330.665 511.031 C 331.141 510.886,332.200 510.235,333.020 509.584 C 333.839 508.933,334.740 508.400,335.021 508.400 C 335.302 508.400,336.042 507.860,336.665 507.200 C 337.288 506.540,337.998 506.000,338.244 506.000 C 338.490 506.000,339.120 505.577,339.645 505.059 C 340.170 504.541,341.044 503.884,341.587 503.598 C 342.130 503.312,343.030 502.664,343.587 502.157 C 346.092 499.876,351.171 495.600,351.375 495.600 C 351.499 495.600,352.664 494.565,353.963 493.300 C 359.409 488.001,360.625 486.809,361.089 486.318 C 361.358 486.033,361.756 485.620,361.975 485.400 C 362.193 485.180,363.644 483.470,365.200 481.600 C 366.755 479.730,368.448 477.750,368.963 477.200 C 369.477 476.650,370.196 475.615,370.559 474.900 C 370.923 474.185,371.366 473.600,371.543 473.600 C 371.720 473.600,372.116 473.105,372.423 472.500 C 372.729 471.895,373.403 470.860,373.919 470.200 C 375.594 468.057,376.772 466.233,377.539 464.594 C 377.952 463.711,378.557 462.767,378.884 462.497 C 379.210 462.226,379.808 461.239,380.212 460.302 C 380.617 459.366,381.247 458.240,381.613 457.800 C 381.979 457.360,382.582 456.216,382.953 455.258 C 383.324 454.300,383.876 453.267,384.180 452.963 C 384.484 452.659,385.045 451.467,385.428 450.314 C 385.811 449.161,386.365 447.978,386.658 447.685 C 386.952 447.391,387.485 446.127,387.843 444.875 C 388.200 443.624,388.755 442.302,389.075 441.937 C 389.395 441.573,389.929 440.233,390.261 438.959 C 390.594 437.686,391.275 435.824,391.776 434.822 C 392.276 433.820,392.803 432.107,392.947 431.015 C 393.090 429.923,393.553 428.367,393.976 427.557 C 394.663 426.239,395.101 424.411,395.787 420.000 C 395.906 419.230,396.275 418.081,396.606 417.447 C 396.937 416.812,397.480 413.842,397.813 410.847 C 398.563 404.096,398.672 403.600,399.408 403.600 C 399.911 403.600,400.000 402.399,400.000 395.600 C 400.000 388.866,399.908 387.600,399.418 387.600 C 399.056 387.600,398.744 388.166,398.592 389.100 " stroke="none" fill="#85c38d" fill-rule="evenodd"></path><path id="path4" d="M4.900 2.796 L 3.600 3.588 3.600 150.971 C 3.600 236.553,3.749 298.445,3.956 298.573 C 4.151 298.694,4.432 299.289,4.580 299.896 C 5.037 301.772,6.781 304.033,8.244 304.644 C 9.009 304.964,9.728 305.467,9.841 305.763 C 9.954 306.058,10.712 306.573,11.524 306.908 C 12.336 307.242,14.080 307.968,15.400 308.520 C 16.720 309.072,18.970 309.647,20.400 309.797 C 21.830 309.947,24.475 310.425,26.278 310.859 C 29.920 311.737,47.505 311.730,53.400 310.848 C 54.940 310.618,58.720 310.241,61.800 310.010 C 67.582 309.576,71.392 309.124,75.200 308.419 C 76.410 308.195,79.740 307.662,82.600 307.235 C 91.139 305.960,92.749 305.679,93.240 305.375 C 93.498 305.216,94.809 304.940,96.155 304.762 C 100.988 304.121,103.623 303.601,105.048 303.006 C 105.845 302.673,107.158 302.400,107.965 302.400 C 109.646 302.400,113.926 301.360,114.622 300.782 C 115.067 300.412,116.076 300.207,122.600 299.155 C 124.140 298.907,126.690 298.275,128.267 297.752 C 129.844 297.228,131.954 296.800,132.955 296.800 C 134.060 296.800,135.658 296.397,137.017 295.775 C 138.249 295.212,140.572 294.499,142.181 294.191 C 143.789 293.883,145.801 293.372,146.652 293.054 C 147.504 292.737,149.370 292.252,150.800 291.977 C 152.230 291.703,154.068 291.146,154.884 290.739 C 155.700 290.333,156.743 290.000,157.201 290.000 C 158.966 290.000,164.111 288.721,165.326 287.980 C 166.027 287.553,167.050 287.196,167.600 287.188 C 168.150 287.179,169.950 286.639,171.600 285.988 C 173.250 285.336,175.230 284.798,176.000 284.792 C 178.018 284.775,180.700 284.095,183.000 283.017 C 184.100 282.501,185.968 281.859,187.150 281.590 C 188.333 281.321,189.773 280.854,190.350 280.553 C 190.928 280.251,191.671 280.004,192.002 280.002 C 192.333 280.001,193.863 279.533,195.402 278.962 C 199.041 277.612,200.144 277.318,202.800 276.988 C 204.100 276.827,205.491 276.349,206.200 275.821 C 206.918 275.285,208.273 274.825,209.574 274.673 C 210.770 274.534,212.660 273.976,213.774 273.433 C 214.888 272.890,216.758 272.255,217.929 272.021 C 219.100 271.787,221.007 271.147,222.168 270.598 C 223.328 270.049,224.610 269.600,225.017 269.600 C 225.424 269.600,226.397 269.166,227.178 268.635 C 227.960 268.104,229.732 267.385,231.116 267.039 C 232.500 266.692,234.587 265.957,235.754 265.404 C 236.922 264.852,238.238 264.400,238.679 264.400 C 239.120 264.400,240.340 263.943,241.389 263.385 C 242.439 262.827,244.158 262.186,245.209 261.961 C 246.260 261.735,247.436 261.202,247.822 260.775 C 248.208 260.349,248.828 260.000,249.199 260.000 C 249.919 260.000,254.067 258.664,255.400 258.002 C 255.840 257.784,257.005 257.328,257.989 256.989 C 258.972 256.650,260.142 256.035,260.589 255.622 C 261.035 255.209,262.198 254.660,263.172 254.401 C 264.147 254.142,265.497 253.518,266.172 253.015 C 266.848 252.511,268.043 251.985,268.829 251.845 C 269.615 251.705,270.865 251.143,271.606 250.595 C 272.348 250.048,273.184 249.600,273.464 249.600 C 274.183 249.600,276.800 248.312,276.800 247.958 C 276.800 247.796,277.682 247.371,278.761 247.013 C 279.839 246.655,281.119 246.017,281.604 245.597 C 282.089 245.176,283.447 244.552,284.622 244.211 C 285.798 243.869,286.865 243.419,286.993 243.211 C 287.122 243.003,288.301 242.351,289.613 241.762 C 290.926 241.173,292.000 240.547,292.000 240.372 C 292.000 240.197,292.405 239.931,292.900 239.780 C 293.395 239.629,294.520 238.981,295.400 238.340 C 298.651 235.970,299.829 235.193,301.032 234.626 C 301.709 234.307,302.517 233.741,302.826 233.369 C 303.135 232.996,304.050 232.274,304.858 231.763 C 305.667 231.253,306.758 230.422,307.282 229.918 C 307.807 229.413,309.485 227.920,311.013 226.600 C 315.008 223.147,323.520 214.321,325.094 212.000 C 325.467 211.450,326.065 210.682,326.422 210.293 C 326.780 209.905,327.326 209.095,327.636 208.493 C 327.946 207.892,328.515 207.165,328.900 206.877 C 329.285 206.590,329.600 206.074,329.600 205.731 C 329.600 205.388,330.205 204.544,330.944 203.854 C 331.683 203.164,332.398 202.136,332.534 201.569 C 332.670 201.002,333.235 200.047,333.790 199.448 C 334.346 198.849,334.800 198.112,334.800 197.810 C 334.800 197.508,335.224 196.753,335.742 196.131 C 336.260 195.509,336.912 194.280,337.192 193.400 C 337.471 192.520,338.099 191.260,338.589 190.600 C 339.078 189.940,339.708 188.680,339.989 187.800 C 340.269 186.920,340.815 185.840,341.203 185.400 C 341.590 184.960,342.180 183.700,342.515 182.600 C 343.098 180.680,343.773 178.702,344.427 177.000 C 344.596 176.560,344.931 175.582,345.172 174.826 C 345.413 174.070,345.907 173.123,346.271 172.722 C 346.654 172.299,347.140 170.581,347.427 168.637 C 347.700 166.792,348.198 164.679,348.534 163.941 C 348.870 163.204,349.241 161.790,349.357 160.800 C 349.474 159.810,349.761 157.380,349.994 155.400 C 351.965 138.690,351.970 137.991,350.229 118.600 C 349.676 112.437,349.531 111.554,348.789 109.800 C 348.381 108.838,347.200 101.733,347.200 100.246 C 347.200 99.666,346.856 98.428,346.436 97.496 C 346.015 96.563,345.455 94.810,345.191 93.600 C 344.927 92.390,344.382 90.823,343.979 90.117 C 343.576 89.411,343.055 87.798,342.821 86.533 C 342.588 85.268,341.947 83.373,341.398 82.324 C 340.849 81.274,340.400 80.203,340.400 79.944 C 340.400 79.532,338.286 74.860,337.077 72.600 C 336.841 72.160,335.596 69.747,334.310 67.238 C 333.023 64.729,331.102 61.579,330.040 60.238 C 328.978 58.897,327.821 57.237,327.469 56.548 C 327.118 55.860,326.545 55.188,326.197 55.054 C 325.849 54.921,325.289 54.134,324.953 53.306 C 324.616 52.478,323.854 51.350,323.259 50.800 C 322.664 50.250,321.462 48.900,320.588 47.800 C 319.715 46.700,318.685 45.565,318.300 45.277 C 317.915 44.990,317.600 44.540,317.600 44.277 C 317.600 44.015,316.138 42.450,314.350 40.800 C 312.563 39.150,310.433 37.170,309.616 36.400 C 308.800 35.630,307.633 34.640,307.024 34.200 C 304.816 32.605,300.968 29.634,299.551 28.431 C 298.755 27.754,297.991 27.200,297.855 27.200 C 297.718 27.200,296.782 26.570,295.773 25.800 C 294.764 25.030,293.705 24.400,293.418 24.400 C 293.132 24.400,292.672 24.128,292.396 23.795 C 292.120 23.463,291.153 22.862,290.247 22.460 C 289.341 22.059,288.361 21.441,288.069 21.087 C 287.777 20.733,286.607 20.136,285.469 19.760 C 284.331 19.384,283.107 18.742,282.749 18.334 C 282.392 17.926,281.132 17.250,279.949 16.833 C 275.517 15.267,272.944 14.175,271.790 13.369 C 271.135 12.912,269.520 12.307,268.200 12.026 C 266.880 11.745,265.530 11.291,265.200 11.018 C 264.562 10.490,261.964 9.774,259.523 9.452 C 258.710 9.345,257.509 8.861,256.854 8.377 C 255.926 7.691,254.792 7.419,251.731 7.150 C 249.547 6.958,247.000 6.470,246.000 6.051 C 243.400 4.962,240.717 4.400,238.094 4.397 C 236.832 4.396,234.270 4.021,232.400 3.565 C 226.767 2.192,214.487 2.040,107.200 2.021 C 7.201 2.003,6.187 2.011,4.900 2.796 M224.800 4.268 C 226.646 5.151,233.511 6.000,238.798 6.000 C 240.687 6.000,241.646 6.227,242.932 6.981 C 244.328 7.799,245.421 8.021,249.506 8.314 C 253.746 8.618,254.533 8.785,255.356 9.559 C 256.037 10.198,257.145 10.569,259.251 10.861 C 260.871 11.085,262.286 11.399,262.398 11.558 C 263.001 12.418,264.764 13.200,266.102 13.200 C 267.842 13.200,269.955 13.980,270.723 14.907 C 271.011 15.254,271.935 15.654,272.777 15.796 C 273.619 15.938,274.684 16.405,275.144 16.833 C 276.223 17.839,277.725 18.400,279.337 18.400 C 280.261 18.400,280.915 18.734,281.664 19.588 C 282.364 20.385,283.239 20.861,284.328 21.035 C 285.221 21.178,286.050 21.552,286.171 21.868 C 286.292 22.183,287.158 22.781,288.095 23.196 C 289.033 23.611,290.197 24.322,290.683 24.776 C 291.169 25.229,291.850 25.600,292.197 25.600 C 292.543 25.600,293.318 26.095,293.918 26.700 C 294.517 27.305,295.546 28.070,296.204 28.400 C 296.862 28.730,297.813 29.405,298.318 29.900 C 298.823 30.395,299.533 30.800,299.896 30.800 C 300.259 30.800,301.106 31.354,301.778 32.030 C 304.485 34.756,307.683 37.586,308.912 38.346 C 309.628 38.788,310.647 39.611,311.177 40.175 C 311.706 40.739,312.382 41.200,312.678 41.200 C 312.975 41.200,313.413 41.630,313.653 42.156 C 313.892 42.682,314.505 43.335,315.014 43.607 C 315.523 43.880,316.045 44.526,316.175 45.044 C 316.432 46.067,317.730 47.650,321.308 51.307 C 322.578 52.604,323.874 54.281,324.188 55.033 C 324.502 55.785,325.031 56.400,325.364 56.400 C 325.730 56.400,326.137 57.024,326.395 57.982 C 326.807 59.512,327.715 60.800,328.380 60.800 C 328.558 60.800,328.930 61.347,329.207 62.016 C 329.484 62.685,330.008 63.450,330.372 63.716 C 330.736 63.982,331.259 64.966,331.534 65.902 C 331.810 66.845,332.449 67.876,332.966 68.214 C 333.604 68.632,333.968 69.346,334.119 70.474 C 334.259 71.518,334.708 72.464,335.345 73.054 C 335.990 73.652,336.444 74.620,336.615 75.761 C 336.781 76.866,337.244 77.877,337.841 78.438 C 338.368 78.934,338.800 79.731,338.800 80.210 C 338.800 81.504,339.613 83.691,340.432 84.601 C 340.840 85.054,341.346 86.609,341.598 88.185 C 342.006 90.739,342.433 91.786,343.338 92.447 C 343.524 92.583,343.837 94.023,344.032 95.647 C 344.485 99.404,344.924 101.197,345.693 102.423 C 346.043 102.981,346.414 104.857,346.558 106.800 C 346.800 110.055,347.189 112.111,348.564 117.400 C 349.713 121.822,349.340 157.147,348.136 157.930 C 347.340 158.447,346.800 159.958,346.797 161.674 C 346.792 164.420,346.034 168.366,345.194 170.012 C 344.769 170.845,344.303 172.308,344.160 173.263 C 344.016 174.218,343.493 175.450,342.998 176.000 C 342.423 176.639,341.914 178.005,341.588 179.786 C 341.276 181.487,340.794 182.810,340.350 183.186 C 339.950 183.524,339.403 184.700,339.134 185.800 C 338.865 186.900,338.234 188.255,337.732 188.811 C 337.231 189.368,336.611 190.448,336.355 191.211 C 336.099 191.975,335.570 192.960,335.180 193.400 C 334.791 193.840,334.274 194.945,334.032 195.856 C 333.779 196.812,333.194 197.774,332.652 198.129 C 332.134 198.468,331.603 199.283,331.472 199.940 C 331.341 200.597,330.686 201.758,330.017 202.520 C 329.347 203.282,328.800 204.062,328.800 204.254 C 328.800 204.446,328.260 205.112,327.600 205.735 C 326.940 206.358,326.400 207.116,326.400 207.420 C 326.400 207.723,326.047 208.161,325.616 208.391 C 325.185 208.622,324.521 209.483,324.140 210.305 C 323.759 211.127,322.941 212.231,322.323 212.758 C 321.706 213.285,321.200 214.050,321.200 214.458 C 321.200 214.866,320.987 215.200,320.726 215.200 C 320.116 215.200,318.400 216.805,318.400 217.375 C 318.400 217.614,317.995 217.988,317.500 218.205 C 317.005 218.422,316.422 219.007,316.204 219.504 C 315.986 220.001,315.480 220.511,315.079 220.638 C 314.679 220.765,314.151 221.308,313.907 221.844 C 313.663 222.380,313.056 222.921,312.558 223.046 C 312.029 223.179,311.484 223.758,311.247 224.437 C 311.015 225.102,310.552 225.600,310.166 225.600 C 309.563 225.600,307.958 226.859,304.767 229.836 C 304.198 230.366,303.536 230.800,303.296 230.800 C 303.055 230.800,302.503 231.252,302.068 231.804 C 301.634 232.356,300.662 233.066,299.907 233.381 C 299.153 233.696,298.302 234.236,298.015 234.582 C 297.729 234.927,296.708 235.557,295.747 235.982 C 294.774 236.413,294.000 237.028,294.000 237.372 C 294.000 237.767,293.366 238.148,292.233 238.433 C 291.261 238.678,290.060 239.311,289.563 239.839 C 289.067 240.368,288.320 240.800,287.904 240.800 C 287.015 240.800,285.721 241.423,284.600 242.390 C 284.160 242.770,282.940 243.312,281.889 243.595 C 280.838 243.878,279.848 244.329,279.689 244.597 C 279.294 245.261,277.818 246.000,276.885 246.000 C 276.462 246.000,275.601 246.478,274.971 247.062 C 274.340 247.646,273.117 248.284,272.251 248.478 C 271.386 248.672,270.178 249.252,269.567 249.766 C 268.957 250.280,267.673 250.818,266.715 250.962 C 265.527 251.140,264.736 251.538,264.230 252.212 C 263.803 252.780,263.082 253.200,262.531 253.200 C 261.099 253.200,258.800 254.277,258.800 254.948 C 258.800 255.533,258.257 255.707,254.800 256.229 C 253.810 256.379,252.491 256.929,251.869 257.451 C 251.122 258.078,250.233 258.400,249.245 258.400 C 247.801 258.400,246.000 259.519,246.000 260.416 C 246.000 260.627,245.415 260.801,244.700 260.802 C 242.784 260.806,240.318 261.568,239.357 262.454 C 238.894 262.882,237.814 263.324,236.957 263.437 C 233.286 263.923,232.749 264.085,231.743 265.018 C 230.989 265.716,230.227 266.000,229.102 266.000 C 227.861 266.000,227.280 266.258,226.400 267.200 C 225.775 267.869,224.863 268.402,224.340 268.404 C 222.349 268.414,220.414 268.928,219.634 269.655 C 218.519 270.693,217.047 271.200,215.148 271.200 C 213.462 271.200,212.005 271.771,211.496 272.630 C 211.329 272.912,210.159 273.259,208.896 273.400 C 206.146 273.707,204.503 274.287,204.040 275.115 C 203.737 275.655,201.434 275.996,195.500 276.381 C 195.335 276.391,194.809 276.791,194.330 277.270 C 193.737 277.863,192.508 278.305,190.466 278.660 C 188.575 278.989,187.155 279.478,186.613 279.988 C 186.102 280.468,184.954 280.887,183.777 281.023 C 180.585 281.392,180.091 281.554,178.959 282.603 C 178.041 283.454,177.495 283.601,175.242 283.610 C 172.024 283.621,169.572 284.150,168.979 284.961 C 168.505 285.609,165.746 286.374,163.822 286.390 C 163.113 286.396,162.218 286.807,161.577 287.422 C 160.637 288.323,160.029 288.481,156.448 288.759 C 153.063 289.021,152.229 289.222,151.440 289.962 C 150.670 290.686,149.721 290.930,146.347 291.275 C 143.086 291.607,142.053 291.864,141.513 292.477 C 140.852 293.227,139.299 293.586,133.800 294.260 C 132.700 294.394,131.440 294.822,131.000 295.209 C 130.445 295.698,128.916 296.058,126.000 296.387 C 122.852 296.743,121.591 297.057,120.965 297.640 C 120.369 298.195,119.336 298.479,117.365 298.630 C 112.923 298.971,112.158 299.162,111.028 300.209 C 110.098 301.071,109.583 301.201,107.079 301.208 C 102.946 301.220,99.101 301.848,98.550 302.601 C 98.013 303.335,97.116 303.491,90.702 303.968 C 87.135 304.233,85.598 304.529,84.320 305.195 C 82.894 305.938,81.595 306.129,75.819 306.448 C 69.966 306.770,68.842 306.938,67.884 307.636 C 64.891 309.814,19.776 309.694,18.002 307.503 C 17.551 306.947,16.609 306.586,15.054 306.375 C 12.687 306.054,12.286 305.799,7.698 301.706 L 5.800 300.013 5.697 151.932 C 5.615 33.401,5.695 3.784,6.097 3.520 C 6.374 3.338,55.290 3.238,114.800 3.299 L 223.000 3.408 224.800 4.268 M135.600 327.380 C 134.610 327.669,132.769 328.287,131.510 328.753 C 130.250 329.219,128.414 329.600,127.429 329.600 C 125.671 329.600,125.119 329.760,121.704 331.257 C 120.772 331.665,119.242 332.002,118.304 332.004 C 117.367 332.007,115.700 332.299,114.600 332.653 C 112.524 333.322,111.192 333.583,105.800 334.376 C 104.040 334.635,101.211 335.376,99.513 336.023 C 97.095 336.945,95.778 337.200,93.439 337.200 C 91.796 337.200,89.945 337.397,89.326 337.639 C 88.707 337.880,87.300 338.230,86.200 338.417 C 85.100 338.603,83.210 338.952,82.000 339.192 C 74.418 340.694,66.690 341.817,61.200 342.215 C 59.330 342.351,56.810 342.627,55.600 342.828 C 47.294 344.213,28.238 344.510,23.000 343.335 C 21.460 342.990,18.274 342.405,15.920 342.034 C 13.551 341.661,11.319 341.086,10.920 340.745 C 7.926 338.184,5.075 337.624,4.377 339.460 C 3.963 340.549,3.842 457.970,4.253 459.504 C 4.589 460.756,6.355 461.172,7.032 460.159 C 7.556 459.374,8.887 457.647,11.618 454.207 C 12.488 453.111,13.200 451.997,13.200 451.730 C 13.200 451.463,13.547 451.002,13.971 450.705 C 14.395 450.408,14.955 449.698,15.215 449.127 C 15.475 448.555,16.118 447.858,16.644 447.576 C 17.170 447.295,17.600 446.953,17.600 446.816 C 17.600 446.679,18.185 445.912,18.900 445.113 C 19.615 444.313,20.830 442.736,21.600 441.608 C 22.370 440.480,24.035 438.447,25.300 437.089 C 26.565 435.732,27.600 434.469,27.600 434.282 C 27.600 434.096,29.299 432.201,31.376 430.072 C 36.201 425.123,37.745 423.411,39.324 421.259 C 42.145 417.412,78.677 381.357,81.052 380.076 C 81.463 379.854,83.544 377.946,85.675 375.836 C 87.807 373.726,89.719 372.000,89.924 372.000 C 90.130 372.000,92.497 369.840,95.184 367.200 C 97.870 364.560,100.209 362.400,100.380 362.400 C 100.551 362.400,101.301 361.863,102.046 361.206 C 102.791 360.550,103.550 360.010,103.733 360.006 C 103.916 360.003,105.213 358.830,106.615 357.400 C 108.017 355.970,109.312 354.800,109.493 354.800 C 109.815 354.800,111.929 353.069,113.285 351.695 C 113.662 351.313,114.112 350.881,114.285 350.735 C 114.458 350.590,115.204 349.910,115.942 349.224 C 116.681 348.538,117.761 347.726,118.342 347.420 C 118.924 347.113,120.390 345.930,121.600 344.791 C 122.810 343.652,124.452 342.300,125.249 341.787 C 126.046 341.274,127.507 340.077,128.497 339.127 C 129.487 338.177,131.361 336.643,132.662 335.718 C 133.963 334.792,135.458 333.577,135.983 333.018 C 136.509 332.458,137.133 331.998,137.370 331.996 C 137.953 331.990,141.600 328.595,141.600 328.057 C 141.600 326.817,138.662 326.485,135.600 327.380 M140.200 328.387 C 140.200 328.705,139.750 329.068,139.200 329.195 C 138.650 329.322,138.022 329.825,137.805 330.313 C 137.588 330.801,137.106 331.200,136.734 331.200 C 136.362 331.200,135.691 331.666,135.243 332.236 C 134.795 332.806,133.837 333.574,133.114 333.944 C 132.391 334.315,131.307 335.063,130.705 335.609 C 128.485 337.620,126.406 339.426,125.192 340.400 C 124.507 340.950,123.404 341.895,122.742 342.500 C 122.080 343.105,121.404 343.600,121.239 343.600 C 121.074 343.600,120.506 344.061,119.977 344.625 C 119.447 345.189,118.381 346.036,117.607 346.508 C 116.833 346.980,115.723 347.823,115.140 348.383 C 114.556 348.942,113.836 349.634,113.540 349.920 C 113.243 350.206,112.677 350.746,112.281 351.120 C 111.886 351.494,111.081 352.295,110.492 352.900 C 109.903 353.505,109.163 354.000,108.846 354.000 C 108.529 354.000,107.264 355.056,106.035 356.347 C 104.806 357.639,103.206 358.998,102.479 359.368 C 101.753 359.739,101.065 360.286,100.951 360.584 C 100.836 360.883,100.207 361.349,99.552 361.620 C 98.898 361.891,98.103 362.615,97.786 363.228 C 97.468 363.841,96.856 364.455,96.425 364.592 C 95.994 364.729,95.530 365.192,95.393 365.621 C 95.257 366.050,94.753 366.603,94.273 366.849 C 93.427 367.284,92.365 368.215,90.108 370.500 C 89.511 371.105,88.862 371.600,88.667 371.600 C 88.472 371.600,86.752 373.175,84.844 375.100 C 82.936 377.025,80.896 378.850,80.309 379.156 C 79.723 379.462,77.659 381.241,75.722 383.111 C 73.785 384.980,71.802 386.771,71.316 387.091 C 70.829 387.410,70.335 387.970,70.217 388.336 C 70.099 388.701,69.462 389.307,68.801 389.681 C 68.140 390.056,67.600 390.612,67.600 390.917 C 67.600 391.222,67.147 391.678,66.594 391.930 C 66.041 392.182,65.382 392.841,65.130 393.394 C 64.878 393.947,64.524 394.400,64.344 394.400 C 63.903 394.400,59.600 398.794,59.600 399.244 C 59.600 399.440,59.411 399.600,59.180 399.600 C 58.740 399.600,52.402 405.903,52.397 406.345 C 52.396 406.485,51.856 406.907,51.197 407.281 C 50.539 407.656,50.000 408.202,50.000 408.495 C 50.000 408.788,49.471 409.340,48.824 409.722 C 48.178 410.104,47.539 410.764,47.404 411.188 C 47.269 411.612,46.797 412.074,46.355 412.214 C 45.913 412.355,45.355 412.900,45.115 413.427 C 44.875 413.954,44.350 414.489,43.948 414.617 C 43.545 414.744,42.904 415.378,42.522 416.024 C 42.140 416.671,41.600 417.200,41.323 417.200 C 41.045 417.200,40.508 417.695,40.129 418.300 C 39.750 418.905,38.306 420.687,36.920 422.260 C 35.534 423.833,34.400 425.227,34.400 425.359 C 34.400 425.490,32.735 427.292,30.700 429.363 C 26.618 433.516,24.800 435.674,24.800 436.363 C 24.800 436.613,24.395 437.007,23.900 437.239 C 23.022 437.651,21.411 439.598,19.800 442.196 C 19.360 442.905,18.550 443.983,18.000 444.591 C 16.760 445.961,14.204 448.727,13.173 449.814 C 12.748 450.262,12.400 450.814,12.400 451.041 C 12.400 451.269,11.776 452.156,11.013 453.014 C 10.249 453.872,9.420 455.069,9.170 455.674 C 8.919 456.278,8.388 456.877,7.990 457.003 C 7.592 457.129,7.055 457.810,6.797 458.516 C 6.370 459.681,6.295 459.726,5.991 459.000 C 5.317 457.391,5.524 340.404,6.201 340.144 C 7.173 339.771,8.706 340.333,9.731 341.439 C 10.568 342.341,11.098 342.494,14.042 342.685 C 16.512 342.845,17.982 343.180,19.600 343.951 L 21.800 345.000 33.891 345.135 C 47.001 345.281,55.571 344.808,58.403 343.781 C 59.575 343.356,63.019 342.947,68.310 342.604 C 74.286 342.217,76.671 341.914,77.374 341.454 C 78.494 340.720,82.506 340.007,85.542 340.003 C 87.024 340.001,88.297 339.692,89.675 339.000 C 91.188 338.240,92.305 337.997,94.333 337.986 C 97.441 337.970,101.592 337.158,102.892 336.312 C 103.867 335.677,108.962 334.802,111.716 334.796 C 112.689 334.794,114.244 334.378,115.400 333.809 C 116.500 333.268,118.066 332.819,118.880 332.813 C 121.168 332.793,124.487 331.979,125.662 331.150 C 126.246 330.737,127.265 330.400,127.927 330.400 C 129.792 330.400,135.229 329.274,135.849 328.759 C 137.139 327.688,140.200 327.427,140.200 328.387 " stroke="none" fill="#7795b3" fill-rule="evenodd"></path></g></svg>